<?xml version="1.0" encoding="UTF-8"?><svg xmlns="http://www.w3.org/2000/svg" xmlns:xlink="http://www.w3.org/1999/xlink" fill-opacity="1" color-rendering="auto" color-interpolation="auto" text-rendering="auto" stroke="black" stroke-linecap="square" width="922" stroke-miterlimit="10" shape-rendering="auto" stroke-opacity="1" fill="black" stroke-dasharray="none" font-weight="normal" stroke-width="1" height="272" font-family="'Dialog'" font-style="normal" stroke-linejoin="miter" font-size="12px" stroke-dashoffset="0" image-rendering="auto">
  <!--Generated by ySVG 2.5-->
  <defs id="genericDefs"/>
  <g>
    <defs id="defs1">
      <clipPath clipPathUnits="userSpaceOnUse" id="clipPath1">
        <path d="M0 0 L922 0 L922 272 L0 272 L0 0 Z"/>
      </clipPath>
      <clipPath clipPathUnits="userSpaceOnUse" id="clipPath2">
        <path d="M-108 68 L814 68 L814 340 L-108 340 L-108 68 Z"/>
      </clipPath>
    </defs>
    <g fill="white" text-rendering="geometricPrecision" shape-rendering="geometricPrecision" transform="translate(108,-68)" stroke="white">
      <rect x="-108" width="922" height="272" y="68" clip-path="url(#clipPath2)" stroke="none"/>
    </g>
    <g fill="rgb(255,204,0)" text-rendering="geometricPrecision" shape-rendering="geometricPrecision" transform="matrix(1,0,0,1,108,-68)" stroke="rgb(255,204,0)">
      <circle r="26" clip-path="url(#clipPath2)" cx="120" cy="128" stroke="none"/>
    </g>
    <g text-rendering="geometricPrecision" stroke-miterlimit="1.45" shape-rendering="geometricPrecision" transform="matrix(1,0,0,1,108,-68)" stroke-linecap="butt">
      <circle fill="none" r="26" clip-path="url(#clipPath2)" cx="120" cy="128"/>
      <text x="111.0059" xml:space="preserve" y="125.1699" clip-path="url(#clipPath2)" font-family="sans-serif" stroke="none">M1</text>
      <text x="106.6406" xml:space="preserve" y="139.1387" clip-path="url(#clipPath2)" font-family="sans-serif" stroke="none">29.9</text>
    </g>
    <g fill="rgb(255,204,0)" text-rendering="geometricPrecision" shape-rendering="geometricPrecision" transform="matrix(1,0,0,1,108,-68)" stroke="rgb(255,204,0)">
      <circle r="26" clip-path="url(#clipPath2)" cx="259" cy="128" stroke="none"/>
    </g>
    <g text-rendering="geometricPrecision" stroke-miterlimit="1.45" shape-rendering="geometricPrecision" transform="matrix(1,0,0,1,108,-68)" stroke-linecap="butt">
      <circle fill="none" r="26" clip-path="url(#clipPath2)" cx="259" cy="128"/>
      <text x="250.0059" xml:space="preserve" y="125.1699" clip-path="url(#clipPath2)" font-family="sans-serif" stroke="none">M2</text>
      <text x="245.6406" xml:space="preserve" y="139.1387" clip-path="url(#clipPath2)" font-family="sans-serif" stroke="none">6.10</text>
    </g>
    <g fill="rgb(255,204,0)" text-rendering="geometricPrecision" shape-rendering="geometricPrecision" transform="matrix(1,0,0,1,108,-68)" stroke="rgb(255,204,0)">
      <circle r="26" clip-path="url(#clipPath2)" cx="398" cy="128" stroke="none"/>
    </g>
    <g text-rendering="geometricPrecision" stroke-miterlimit="1.45" shape-rendering="geometricPrecision" transform="matrix(1,0,0,1,108,-68)" stroke-linecap="butt">
      <circle fill="none" r="26" clip-path="url(#clipPath2)" cx="398" cy="128"/>
      <text x="389.0059" xml:space="preserve" y="125.1699" clip-path="url(#clipPath2)" font-family="sans-serif" stroke="none">M3</text>
      <text x="380.8232" xml:space="preserve" y="139.1387" clip-path="url(#clipPath2)" font-family="sans-serif" stroke="none">13.10</text>
    </g>
    <g fill="rgb(244,244,244)" text-rendering="geometricPrecision" shape-rendering="geometricPrecision" transform="matrix(1,0,0,1,108,-68)" stroke="rgb(244,244,244)">
      <circle r="26" clip-path="url(#clipPath2)" cx="537" cy="128" stroke="none"/>
    </g>
    <g stroke-linecap="butt" transform="matrix(1,0,0,1,108,-68)" fill="silver" text-rendering="geometricPrecision" shape-rendering="geometricPrecision" stroke="silver" stroke-miterlimit="1.45">
      <circle fill="none" r="26" clip-path="url(#clipPath2)" cx="537" cy="128"/>
      <text x="528.0059" xml:space="preserve" y="125.1699" clip-path="url(#clipPath2)" font-family="sans-serif" stroke="none">M4</text>
      <text x="519.8232" xml:space="preserve" y="139.1387" clip-path="url(#clipPath2)" font-family="sans-serif" stroke="none">21.10</text>
    </g>
    <g fill="rgb(255,204,0)" text-rendering="geometricPrecision" shape-rendering="geometricPrecision" transform="matrix(1,0,0,1,108,-68)" stroke="rgb(255,204,0)">
      <rect x="174.5" width="30" height="30" y="173" clip-path="url(#clipPath2)" stroke="none"/>
    </g>
    <g text-rendering="geometricPrecision" stroke-miterlimit="1.45" shape-rendering="geometricPrecision" transform="matrix(1,0,0,1,108,-68)" stroke-linecap="butt">
      <rect fill="none" x="174.5" width="30" height="30" y="173" clip-path="url(#clipPath2)"/>
      <text x="182.3398" xml:space="preserve" y="192.1543" clip-path="url(#clipPath2)" font-family="sans-serif" stroke="none">L1</text>
    </g>
    <g fill="rgb(255,204,0)" text-rendering="geometricPrecision" shape-rendering="geometricPrecision" transform="matrix(1,0,0,1,108,-68)" stroke="rgb(255,204,0)">
      <rect x="174.5" width="30" height="30" y="219" clip-path="url(#clipPath2)" stroke="none"/>
    </g>
    <g text-rendering="geometricPrecision" stroke-miterlimit="1.45" shape-rendering="geometricPrecision" transform="matrix(1,0,0,1,108,-68)" stroke-linecap="butt">
      <rect fill="none" x="174.5" width="30" height="30" y="219" clip-path="url(#clipPath2)"/>
      <text x="181.8916" xml:space="preserve" y="238.1543" clip-path="url(#clipPath2)" font-family="sans-serif" stroke="none">E1</text>
    </g>
    <g fill="rgb(153,204,0)" text-rendering="geometricPrecision" shape-rendering="geometricPrecision" transform="matrix(1,0,0,1,108,-68)" stroke="rgb(153,204,0)">
      <rect x="174.5" width="30" height="30" y="265" clip-path="url(#clipPath2)" stroke="none"/>
    </g>
    <g text-rendering="geometricPrecision" stroke-miterlimit="1.45" shape-rendering="geometricPrecision" transform="matrix(1,0,0,1,108,-68)" stroke-linecap="butt">
      <rect fill="none" x="174.5" width="30" height="30" y="265" clip-path="url(#clipPath2)"/>
      <text x="181.8916" xml:space="preserve" y="284.1543" clip-path="url(#clipPath2)" font-family="sans-serif" stroke="none">E0</text>
    </g>
    <g fill="rgb(255,204,0)" text-rendering="geometricPrecision" shape-rendering="geometricPrecision" transform="matrix(1,0,0,1,108,-68)" stroke="rgb(255,204,0)">
      <rect x="313.5" width="30" height="30" y="173" clip-path="url(#clipPath2)" stroke="none"/>
    </g>
    <g text-rendering="geometricPrecision" stroke-miterlimit="1.45" shape-rendering="geometricPrecision" transform="matrix(1,0,0,1,108,-68)" stroke-linecap="butt">
      <rect fill="none" x="313.5" width="30" height="30" y="173" clip-path="url(#clipPath2)"/>
      <text x="321.3398" xml:space="preserve" y="192.1543" clip-path="url(#clipPath2)" font-family="sans-serif" stroke="none">L2</text>
    </g>
    <g fill="rgb(255,204,0)" text-rendering="geometricPrecision" shape-rendering="geometricPrecision" transform="matrix(1,0,0,1,108,-68)" stroke="rgb(255,204,0)">
      <rect x="313.5" width="30" height="30" y="219" clip-path="url(#clipPath2)" stroke="none"/>
    </g>
    <g text-rendering="geometricPrecision" stroke-miterlimit="1.45" shape-rendering="geometricPrecision" transform="matrix(1,0,0,1,108,-68)" stroke-linecap="butt">
      <rect fill="none" x="313.5" width="30" height="30" y="219" clip-path="url(#clipPath2)"/>
      <text x="320.8916" xml:space="preserve" y="238.1543" clip-path="url(#clipPath2)" font-family="sans-serif" stroke="none">E2</text>
    </g>
    <g fill="rgb(153,204,0)" text-rendering="geometricPrecision" shape-rendering="geometricPrecision" transform="matrix(1,0,0,1,108,-68)" stroke="rgb(153,204,0)">
      <rect x="313.5" width="30" height="30" y="265" clip-path="url(#clipPath2)" stroke="none"/>
    </g>
    <g text-rendering="geometricPrecision" stroke-miterlimit="1.45" shape-rendering="geometricPrecision" transform="matrix(1,0,0,1,108,-68)" stroke-linecap="butt">
      <rect fill="none" x="313.5" width="30" height="30" y="265" clip-path="url(#clipPath2)"/>
      <text x="320.8916" xml:space="preserve" y="284.1543" clip-path="url(#clipPath2)" font-family="sans-serif" stroke="none">E1</text>
    </g>
    <g fill="rgb(255,204,0)" text-rendering="geometricPrecision" shape-rendering="geometricPrecision" transform="matrix(1,0,0,1,108,-68)" stroke="rgb(255,204,0)">
      <rect x="452.5" width="30" height="30" y="173" clip-path="url(#clipPath2)" stroke="none"/>
    </g>
    <g text-rendering="geometricPrecision" stroke-miterlimit="1.45" shape-rendering="geometricPrecision" transform="matrix(1,0,0,1,108,-68)" stroke-linecap="butt">
      <rect fill="none" x="452.5" width="30" height="30" y="173" clip-path="url(#clipPath2)"/>
      <text x="460.3398" xml:space="preserve" y="192.1543" clip-path="url(#clipPath2)" font-family="sans-serif" stroke="none">L3</text>
    </g>
    <g fill="rgb(255,204,0)" text-rendering="geometricPrecision" shape-rendering="geometricPrecision" transform="matrix(1,0,0,1,108,-68)" stroke="rgb(255,204,0)">
      <rect x="452.5" width="30" height="30" y="219" clip-path="url(#clipPath2)" stroke="none"/>
    </g>
    <g text-rendering="geometricPrecision" stroke-miterlimit="1.45" shape-rendering="geometricPrecision" transform="matrix(1,0,0,1,108,-68)" stroke-linecap="butt">
      <rect fill="none" x="452.5" width="30" height="30" y="219" clip-path="url(#clipPath2)"/>
      <text x="459.8916" xml:space="preserve" y="238.1543" clip-path="url(#clipPath2)" font-family="sans-serif" stroke="none">E3</text>
    </g>
    <g fill="rgb(153,204,0)" text-rendering="geometricPrecision" shape-rendering="geometricPrecision" transform="matrix(1,0,0,1,108,-68)" stroke="rgb(153,204,0)">
      <rect x="452.5" width="30" height="30" y="265" clip-path="url(#clipPath2)" stroke="none"/>
    </g>
    <g text-rendering="geometricPrecision" stroke-miterlimit="1.45" shape-rendering="geometricPrecision" transform="matrix(1,0,0,1,108,-68)" stroke-linecap="butt">
      <rect fill="none" x="452.5" width="30" height="30" y="265" clip-path="url(#clipPath2)"/>
      <text x="459.8916" xml:space="preserve" y="284.1543" clip-path="url(#clipPath2)" font-family="sans-serif" stroke="none">E2</text>
    </g>
    <g fill="rgb(244,244,244)" text-rendering="geometricPrecision" shape-rendering="geometricPrecision" transform="matrix(1,0,0,1,108,-68)" stroke="rgb(244,244,244)">
      <rect x="591.5" width="30" height="30" y="173" clip-path="url(#clipPath2)" stroke="none"/>
    </g>
    <g stroke-linecap="butt" transform="matrix(1,0,0,1,108,-68)" fill="silver" text-rendering="geometricPrecision" shape-rendering="geometricPrecision" stroke="silver" stroke-miterlimit="1.45">
      <rect fill="none" x="591.5" width="30" height="30" y="173" clip-path="url(#clipPath2)"/>
      <text x="599.3398" xml:space="preserve" y="192.1543" clip-path="url(#clipPath2)" font-family="sans-serif" stroke="none">L4</text>
    </g>
    <g fill="rgb(244,244,244)" text-rendering="geometricPrecision" shape-rendering="geometricPrecision" transform="matrix(1,0,0,1,108,-68)" stroke="rgb(244,244,244)">
      <rect x="591.5" width="30" height="30" y="219" clip-path="url(#clipPath2)" stroke="none"/>
    </g>
    <g stroke-linecap="butt" transform="matrix(1,0,0,1,108,-68)" fill="silver" text-rendering="geometricPrecision" shape-rendering="geometricPrecision" stroke="silver" stroke-miterlimit="1.45">
      <rect fill="none" x="591.5" width="30" height="30" y="219" clip-path="url(#clipPath2)"/>
      <text x="598.8916" xml:space="preserve" y="238.1543" clip-path="url(#clipPath2)" font-family="sans-serif" stroke="none">E4</text>
    </g>
    <g fill="rgb(244,244,244)" text-rendering="geometricPrecision" shape-rendering="geometricPrecision" transform="matrix(1,0,0,1,108,-68)" stroke="rgb(244,244,244)">
      <rect x="591.5" width="30" height="30" y="265" clip-path="url(#clipPath2)" stroke="none"/>
    </g>
    <g stroke-linecap="butt" transform="matrix(1,0,0,1,108,-68)" fill="silver" text-rendering="geometricPrecision" shape-rendering="geometricPrecision" stroke="silver" stroke-miterlimit="1.45">
      <rect fill="none" x="591.5" width="30" height="30" y="265" clip-path="url(#clipPath2)"/>
      <text x="598.8916" xml:space="preserve" y="284.1543" clip-path="url(#clipPath2)" font-family="sans-serif" stroke="none">E3</text>
      <text x="-39.0391" y="186.1387" clip-path="url(#clipPath2)" fill="black" font-family="sans-serif" stroke="none" xml:space="preserve">Study the theory</text>
      <text x="-53.4824" y="232.1387" clip-path="url(#clipPath2)" fill="black" font-family="sans-serif" stroke="none" xml:space="preserve">Read next exercise</text>
      <text x="-80.3418" y="278.1387" clip-path="url(#clipPath2)" fill="black" font-family="sans-serif" stroke="none" xml:space="preserve">Solve previous exercise</text>
      <text x="-65.2848" y="118.1855" clip-path="url(#clipPath2)" fill="black" font-family="sans-serif" stroke="none" xml:space="preserve">Solutions for exercises</text>
      <text x="-51.4801" y="132.1543" clip-path="url(#clipPath2)" fill="black" font-family="sans-serif" stroke="none" xml:space="preserve">Discussion of theory</text>
      <text x="-65.9762" y="146.123" clip-path="url(#clipPath2)" fill="black" font-family="sans-serif" stroke="none" xml:space="preserve">Discuss next exercises</text>
      <text x="216.1709" y="192.1543" clip-path="url(#clipPath2)" fill="blue" font-family="sans-serif" stroke="none" xml:space="preserve">2H</text>
      <text x="210.4463" y="238.1543" clip-path="url(#clipPath2)" fill="blue" font-family="sans-serif" stroke="none" xml:space="preserve">0.1H</text>
      <text x="216.1709" y="278.0582" clip-path="url(#clipPath2)" fill="blue" font-family="sans-serif" stroke="none" xml:space="preserve">4H</text>
      <text x="358.5711" y="198.2504" clip-path="url(#clipPath2)" fill="blue" font-family="sans-serif" stroke="none" xml:space="preserve">2H</text>
      <text x="352.8465" y="244.2504" clip-path="url(#clipPath2)" fill="blue" font-family="sans-serif" stroke="none" xml:space="preserve">0.1H</text>
      <text x="358.5711" y="284.1543" clip-path="url(#clipPath2)" fill="blue" font-family="sans-serif" stroke="none" xml:space="preserve">4H</text>
      <text x="502.0015" y="192.1543" clip-path="url(#clipPath2)" fill="blue" font-family="sans-serif" stroke="none" xml:space="preserve">2H</text>
      <text x="496.2769" y="238.1543" clip-path="url(#clipPath2)" fill="blue" font-family="sans-serif" stroke="none" xml:space="preserve">0.1H</text>
      <text x="502.0015" y="278.0582" clip-path="url(#clipPath2)" fill="blue" font-family="sans-serif" stroke="none" xml:space="preserve">4H</text>
    </g>
    <g fill="rgb(255,204,0)" text-rendering="geometricPrecision" shape-rendering="geometricPrecision" transform="matrix(1,0,0,1,108,-68)" stroke="rgb(255,204,0)">
      <circle r="26" clip-path="url(#clipPath2)" cx="742.1493" cy="128" stroke="none"/>
    </g>
    <g text-rendering="geometricPrecision" stroke-miterlimit="1.45" shape-rendering="geometricPrecision" transform="matrix(1,0,0,1,108,-68)" stroke-linecap="butt">
      <circle fill="none" r="26" clip-path="url(#clipPath2)" cx="742.1493" cy="128"/>
      <text x="721.3837" xml:space="preserve" y="132.1543" clip-path="url(#clipPath2)" font-family="sans-serif" stroke="none">Project</text>
      <text x="771.0028" y="102.1817" clip-path="url(#clipPath2)" fill="blue" font-family="sans-serif" stroke="none" xml:space="preserve">30H</text>
      <text x="152.6709" y="106.2221" clip-path="url(#clipPath2)" fill="blue" font-family="sans-serif" stroke="none" xml:space="preserve">2H</text>
      <text x="291.6709" y="106.2221" clip-path="url(#clipPath2)" fill="blue" font-family="sans-serif" stroke="none" xml:space="preserve">2H</text>
      <text x="430.6709" y="106.2221" clip-path="url(#clipPath2)" fill="blue" font-family="sans-serif" stroke="none" xml:space="preserve">2H</text>
    </g>
    <g fill="rgb(244,244,244)" text-rendering="geometricPrecision" shape-rendering="geometricPrecision" transform="matrix(1,0,0,1,108,-68)" stroke="rgb(244,244,244)">
      <rect x="563" width="30" height="30" y="87.0678" clip-path="url(#clipPath2)" stroke="none"/>
    </g>
    <g stroke-linecap="butt" transform="matrix(1,0,0,1,108,-68)" fill="silver" text-rendering="geometricPrecision" shape-rendering="geometricPrecision" stroke="silver" stroke-miterlimit="1.45">
      <rect fill="none" x="563" width="30" height="30" y="87.0678" clip-path="url(#clipPath2)"/>
      <text x="569.6709" xml:space="preserve" y="106.2221" clip-path="url(#clipPath2)" font-family="sans-serif" stroke="none">2H</text>
    </g>
    <g fill="rgb(244,244,244)" text-rendering="geometricPrecision" shape-rendering="geometricPrecision" transform="matrix(1,0,0,1,108,-68)" stroke="rgb(244,244,244)">
      <circle r="26" clip-path="url(#clipPath2)" cx="641.9776" cy="128" stroke="none"/>
    </g>
    <g stroke-linecap="round" transform="matrix(1,0,0,1,108,-68)" fill="silver" text-rendering="geometricPrecision" shape-rendering="geometricPrecision" stroke-dasharray="4,3,0,3" stroke="silver" stroke-miterlimit="1.45">
      <circle fill="none" r="26" clip-path="url(#clipPath2)" cx="641.9776" cy="128"/>
      <text stroke-linecap="butt" x="632.9835" y="125.1699" clip-path="url(#clipPath2)" font-family="sans-serif" stroke-dasharray="none" stroke="none" xml:space="preserve">M5</text>
      <text stroke-linecap="butt" x="624.8008" y="139.1387" clip-path="url(#clipPath2)" font-family="sans-serif" stroke-dasharray="none" stroke="none" xml:space="preserve">27.10</text>
    </g>
    <g text-rendering="geometricPrecision" stroke-miterlimit="1.45" shape-rendering="geometricPrecision" transform="matrix(1,0,0,1,108,-68)" stroke-linecap="butt">
      <path fill="none" d="M146 128 L225 128" clip-path="url(#clipPath2)"/>
      <path d="M233 128 L221 123 L224 128 L221 133 Z" clip-path="url(#clipPath2)" stroke="none"/>
      <path fill="none" d="M285 128 L364 128" clip-path="url(#clipPath2)"/>
      <path d="M372 128 L360 123 L363 128 L360 133 Z" clip-path="url(#clipPath2)" stroke="none"/>
      <path fill="none" d="M424 128 L503 128" clip-path="url(#clipPath2)"/>
      <path d="M511 128 L499 123 L502 128 L499 133 Z" clip-path="url(#clipPath2)" stroke="none"/>
      <path fill="none" d="M139.6806 144.9904 L168.4444 169.8225" clip-path="url(#clipPath2)"/>
      <path d="M174.5 175.0504 L168.6841 163.4239 L167.6875 169.1691 L162.1493 170.9934 Z" clip-path="url(#clipPath2)" stroke="none"/>
      <path fill="none" d="M204.5 175.0504 L233.2639 150.2183" clip-path="url(#clipPath2)"/>
      <path d="M239.3194 144.9904 L226.9687 149.0475 L232.5069 150.8717 L233.5035 156.6169 Z" clip-path="url(#clipPath2)" stroke="none"/>
      <path fill="none" d="M189.5 203 L189.5 211" clip-path="url(#clipPath2)"/>
      <path d="M189.5 219 L194.5 207 L189.5 210 L184.5 207 Z" clip-path="url(#clipPath2)" stroke="none"/>
      <path fill="none" d="M189.5 249 L189.5 257" clip-path="url(#clipPath2)"/>
      <path d="M189.5 265 L194.5 253 L189.5 256 L184.5 253 Z" clip-path="url(#clipPath2)" stroke="none"/>
      <path fill="none" d="M278.6806 144.9904 L307.4444 169.8225" clip-path="url(#clipPath2)"/>
      <path d="M313.5 175.0504 L307.684 163.4239 L306.6875 169.1691 L301.1493 170.9934 Z" clip-path="url(#clipPath2)" stroke="none"/>
      <path fill="none" d="M328.5 203 L328.5 211" clip-path="url(#clipPath2)"/>
      <path d="M328.5 219 L333.5 207 L328.5 210 L323.5 207 Z" clip-path="url(#clipPath2)" stroke="none"/>
      <path fill="none" d="M328.5 249 L328.5 257" clip-path="url(#clipPath2)"/>
      <path d="M328.5 265 L333.5 253 L328.5 256 L323.5 253 Z" clip-path="url(#clipPath2)" stroke="none"/>
      <path fill="none" d="M417.6806 144.9904 L446.4444 169.8225" clip-path="url(#clipPath2)"/>
      <path d="M452.5 175.0504 L446.684 163.4239 L445.6875 169.1691 L440.1493 170.9934 Z" clip-path="url(#clipPath2)" stroke="none"/>
      <path fill="none" d="M467.5 203 L467.5 211" clip-path="url(#clipPath2)"/>
      <path d="M467.5 219 L472.5 207 L467.5 210 L462.5 207 Z" clip-path="url(#clipPath2)" stroke="none"/>
      <path fill="none" d="M467.5 249 L467.5 257" clip-path="url(#clipPath2)"/>
      <path d="M467.5 265 L472.5 253 L467.5 256 L462.5 253 Z" clip-path="url(#clipPath2)" stroke="none"/>
      <path fill="none" d="M556.6806 144.9904 L585.4445 169.8225" clip-path="url(#clipPath2)" stroke="rgb(239,239,239)"/>
      <path fill="rgb(239,239,239)" d="M591.5 175.0504 L585.6841 163.4239 L584.6875 169.1691 L579.1493 170.9933 Z" clip-path="url(#clipPath2)" stroke="none"/>
      <path fill="none" d="M606.5 203 L606.5 211" clip-path="url(#clipPath2)" stroke="rgb(239,239,239)"/>
      <path fill="rgb(239,239,239)" d="M606.5 219 L611.5 207 L606.5 210 L601.5 207 Z" clip-path="url(#clipPath2)" stroke="none"/>
      <path fill="none" d="M606.5 249 L606.5 257" clip-path="url(#clipPath2)" stroke="rgb(244,244,244)"/>
      <path fill="rgb(244,244,244)" d="M606.5 265 L611.5 253 L606.5 256 L601.5 253 Z" clip-path="url(#clipPath2)" stroke="none"/>
    </g>
    <g stroke-linecap="round" transform="matrix(1,0,0,1,108,-68)" stroke-dashoffset="2" text-rendering="geometricPrecision" shape-rendering="geometricPrecision" stroke-dasharray="0,12" stroke-width="3" stroke-miterlimit="1.45">
      <path fill="none" d="M64 188 L174.5 188" clip-path="url(#clipPath2)"/>
      <path fill="none" d="M64 234 L174.5 234" clip-path="url(#clipPath2)"/>
      <path fill="none" d="M64 280 L174.5 280" clip-path="url(#clipPath2)"/>
    </g>
    <g stroke-linecap="butt" transform="matrix(1,0,0,1,108,-68)" fill="rgb(239,239,239)" text-rendering="geometricPrecision" shape-rendering="geometricPrecision" stroke-dasharray="6,2" stroke="rgb(239,239,239)" stroke-miterlimit="1.45">
      <path fill="none" d="M563 128 L607.9776 128" clip-path="url(#clipPath2)"/>
      <path d="M615.9776 128 L603.9776 123 L606.9776 128 L603.9776 133 Z" clip-path="url(#clipPath2)" stroke="none"/>
      <path fill="none" d="M667.9776 128 L708.1493 128" clip-path="url(#clipPath2)" stroke="black"/>
      <path fill="black" d="M716.1493 128 L704.1493 123 L707.1493 128 L704.1493 133 Z" clip-path="url(#clipPath2)" stroke="none"/>
    </g>
  </g>
</svg>
