<?xml version="1.0" encoding="UTF-8"?><svg xmlns="http://www.w3.org/2000/svg" xmlns:xlink="http://www.w3.org/1999/xlink" fill-opacity="1" color-rendering="auto" color-interpolation="auto" text-rendering="auto" stroke="black" stroke-linecap="square" width="725" stroke-miterlimit="10" shape-rendering="auto" stroke-opacity="1" fill="black" stroke-dasharray="none" font-weight="normal" stroke-width="1" height="420" font-family="'Dialog'" font-style="normal" stroke-linejoin="miter" font-size="12px" stroke-dashoffset="0" image-rendering="auto">
  <!--Generated by ySVG 2.5-->
  <defs id="genericDefs"/>
  <g>
    <defs id="defs1">
      <clipPath clipPathUnits="userSpaceOnUse" id="clipPath1">
        <path d="M0 0 L725 0 L725 420 L0 420 L0 0 Z"/>
      </clipPath>
      <clipPath clipPathUnits="userSpaceOnUse" id="clipPath2">
        <path d="M-8 46 L717 46 L717 466 L-8 466 L-8 46 Z"/>
      </clipPath>
    </defs>
    <g fill="white" text-rendering="geometricPrecision" shape-rendering="geometricPrecision" transform="translate(8,-46)" stroke="white">
      <rect x="-8" width="725" height="420" y="46" clip-path="url(#clipPath2)" stroke="none"/>
    </g>
    <g fill="rgb(255,204,0)" text-rendering="geometricPrecision" shape-rendering="geometricPrecision" transform="matrix(1,0,0,1,8,-46)" stroke="rgb(255,204,0)">
      <rect x="299" width="63.75" height="30" y="91" clip-path="url(#clipPath2)" stroke="none"/>
    </g>
    <g text-rendering="geometricPrecision" stroke-miterlimit="1.45" shape-rendering="geometricPrecision" transform="matrix(1,0,0,1,8,-46)" stroke-linecap="butt">
      <rect fill="none" x="299" width="63.75" height="30" y="91" clip-path="url(#clipPath2)"/>
      <text x="327.0576" xml:space="preserve" y="103.1699" clip-path="url(#clipPath2)" font-family="sans-serif" stroke="none">0</text>
      <text x="302.249" xml:space="preserve" y="117.1387" clip-path="url(#clipPath2)" font-family="sans-serif" stroke="none">5, 0.0751</text>
    </g>
    <g fill="rgb(255,204,0)" text-rendering="geometricPrecision" shape-rendering="geometricPrecision" transform="matrix(1,0,0,1,8,-46)" stroke="rgb(255,204,0)">
      <rect x="180.5" width="30" height="30" y="184.5" clip-path="url(#clipPath2)" stroke="none"/>
    </g>
    <g text-rendering="geometricPrecision" stroke-miterlimit="1.45" shape-rendering="geometricPrecision" transform="matrix(1,0,0,1,8,-46)" stroke-linecap="butt">
      <rect fill="none" x="180.5" width="30" height="30" y="184.5" clip-path="url(#clipPath2)"/>
      <text x="191.6826" xml:space="preserve" y="203.6543" clip-path="url(#clipPath2)" font-family="sans-serif" stroke="none">1</text>
    </g>
    <g fill="rgb(255,204,0)" text-rendering="geometricPrecision" shape-rendering="geometricPrecision" transform="matrix(1,0,0,1,8,-46)" stroke="rgb(255,204,0)">
      <rect x="464" width="73" height="30" y="192" clip-path="url(#clipPath2)" stroke="none"/>
    </g>
    <g text-rendering="geometricPrecision" stroke-miterlimit="1.45" shape-rendering="geometricPrecision" transform="matrix(1,0,0,1,8,-46)" stroke-linecap="butt">
      <rect fill="none" x="464" width="73" height="30" y="192" clip-path="url(#clipPath2)"/>
      <text x="496.6826" xml:space="preserve" y="204.1699" clip-path="url(#clipPath2)" font-family="sans-serif" stroke="none">2</text>
      <text x="468.0566" xml:space="preserve" y="218.1387" clip-path="url(#clipPath2)" font-family="sans-serif" stroke="none">11, 0.1256</text>
    </g>
    <g fill="rgb(255,204,0)" text-rendering="geometricPrecision" shape-rendering="geometricPrecision" transform="matrix(1,0,0,1,8,-46)" stroke="rgb(255,204,0)">
      <rect x="552.75" width="63.75" height="30" y="246" clip-path="url(#clipPath2)" stroke="none"/>
    </g>
    <g text-rendering="geometricPrecision" stroke-miterlimit="1.45" shape-rendering="geometricPrecision" transform="matrix(1,0,0,1,8,-46)" stroke-linecap="butt">
      <rect fill="none" x="552.75" width="63.75" height="30" y="246" clip-path="url(#clipPath2)"/>
      <text x="580.8076" xml:space="preserve" y="258.1699" clip-path="url(#clipPath2)" font-family="sans-serif" stroke="none">4</text>
      <text x="552.1816" xml:space="preserve" y="272.1387" clip-path="url(#clipPath2)" font-family="sans-serif" stroke="none">12, 0.1571</text>
    </g>
    <g fill="rgb(255,204,0)" text-rendering="geometricPrecision" shape-rendering="geometricPrecision" transform="matrix(1,0,0,1,8,-46)" stroke="rgb(255,204,0)">
      <rect x="395.25" width="30" height="30" y="250" clip-path="url(#clipPath2)" stroke="none"/>
    </g>
    <g text-rendering="geometricPrecision" stroke-miterlimit="1.45" shape-rendering="geometricPrecision" transform="matrix(1,0,0,1,8,-46)" stroke-linecap="butt">
      <rect fill="none" x="395.25" width="30" height="30" y="250" clip-path="url(#clipPath2)"/>
      <text x="406.4326" xml:space="preserve" y="269.1543" clip-path="url(#clipPath2)" font-family="sans-serif" stroke="none">3</text>
    </g>
    <g fill="rgb(255,204,0)" text-rendering="geometricPrecision" shape-rendering="geometricPrecision" transform="matrix(1,0,0,1,8,-46)" stroke="rgb(255,204,0)">
      <rect x="507" width="63.75" height="30" y="306" clip-path="url(#clipPath2)" stroke="none"/>
    </g>
    <g text-rendering="geometricPrecision" stroke-miterlimit="1.45" shape-rendering="geometricPrecision" transform="matrix(1,0,0,1,8,-46)" stroke-linecap="butt">
      <rect fill="none" x="507" width="63.75" height="30" y="306" clip-path="url(#clipPath2)"/>
      <text x="535.0576" xml:space="preserve" y="318.1699" clip-path="url(#clipPath2)" font-family="sans-serif" stroke="none">5</text>
      <text x="510.249" xml:space="preserve" y="332.1387" clip-path="url(#clipPath2)" font-family="sans-serif" stroke="none">7, 0.2586</text>
    </g>
    <g fill="rgb(255,204,0)" text-rendering="geometricPrecision" shape-rendering="geometricPrecision" transform="matrix(1,0,0,1,8,-46)" stroke="rgb(255,204,0)">
      <rect x="507" width="30" height="30" y="366" clip-path="url(#clipPath2)" stroke="none"/>
    </g>
    <g text-rendering="geometricPrecision" stroke-miterlimit="1.45" shape-rendering="geometricPrecision" transform="matrix(1,0,0,1,8,-46)" stroke-linecap="butt">
      <rect fill="none" x="507" width="30" height="30" y="366" clip-path="url(#clipPath2)"/>
      <text x="518.1826" xml:space="preserve" y="385.1543" clip-path="url(#clipPath2)" font-family="sans-serif" stroke="none">6</text>
    </g>
    <g fill="rgb(255,204,0)" text-rendering="geometricPrecision" shape-rendering="geometricPrecision" transform="matrix(1,0,0,1,8,-46)" stroke="rgb(255,204,0)">
      <rect x="612" width="30" height="30" y="306" clip-path="url(#clipPath2)" stroke="none"/>
    </g>
    <g text-rendering="geometricPrecision" stroke-miterlimit="1.45" shape-rendering="geometricPrecision" transform="matrix(1,0,0,1,8,-46)" stroke-linecap="butt">
      <rect fill="none" x="612" width="30" height="30" y="306" clip-path="url(#clipPath2)"/>
      <text x="623.1826" xml:space="preserve" y="325.1543" clip-path="url(#clipPath2)" font-family="sans-serif" stroke="none">8</text>
    </g>
    <g fill="rgb(255,204,0)" text-rendering="geometricPrecision" shape-rendering="geometricPrecision" transform="matrix(1,0,0,1,8,-46)" stroke="rgb(255,204,0)">
      <rect x="550" width="30" height="30" y="366" clip-path="url(#clipPath2)" stroke="none"/>
    </g>
    <g text-rendering="geometricPrecision" stroke-miterlimit="1.45" shape-rendering="geometricPrecision" transform="matrix(1,0,0,1,8,-46)" stroke-linecap="butt">
      <rect fill="none" x="550" width="30" height="30" y="366" clip-path="url(#clipPath2)"/>
      <text x="561.1826" xml:space="preserve" y="385.1543" clip-path="url(#clipPath2)" font-family="sans-serif" stroke="none">7</text>
    </g>
    <g fill="silver" text-rendering="geometricPrecision" shape-rendering="geometricPrecision" transform="matrix(1,0,0,1,8,-46)" stroke="silver">
      <rect x="72.5" width="30" height="30" y="249.5" clip-path="url(#clipPath2)" stroke="none"/>
    </g>
    <g text-rendering="geometricPrecision" stroke-miterlimit="1.45" shape-rendering="geometricPrecision" transform="matrix(1,0,0,1,8,-46)" stroke-linecap="butt">
      <rect fill="none" x="72.5" width="30" height="30" y="249.5" clip-path="url(#clipPath2)"/>
    </g>
    <g fill="silver" text-rendering="geometricPrecision" shape-rendering="geometricPrecision" transform="matrix(1,0,0,1,8,-46)" stroke="silver">
      <rect x="222.25" width="30" height="30" y="249.5" clip-path="url(#clipPath2)" stroke="none"/>
    </g>
    <g text-rendering="geometricPrecision" stroke-miterlimit="1.45" shape-rendering="geometricPrecision" transform="matrix(1,0,0,1,8,-46)" stroke-linecap="butt">
      <rect fill="none" x="222.25" width="30" height="30" y="249.5" clip-path="url(#clipPath2)"/>
    </g>
    <g fill="silver" text-rendering="geometricPrecision" shape-rendering="geometricPrecision" transform="matrix(1,0,0,1,8,-46)" stroke="silver">
      <rect x="31" width="30" height="30" y="306" clip-path="url(#clipPath2)" stroke="none"/>
    </g>
    <g text-rendering="geometricPrecision" stroke-miterlimit="1.45" shape-rendering="geometricPrecision" transform="matrix(1,0,0,1,8,-46)" stroke-linecap="butt">
      <rect fill="none" x="31" width="30" height="30" y="306" clip-path="url(#clipPath2)"/>
    </g>
    <g fill="silver" text-rendering="geometricPrecision" shape-rendering="geometricPrecision" transform="matrix(1,0,0,1,8,-46)" stroke="silver">
      <rect x="102.5" width="30" height="30" y="306" clip-path="url(#clipPath2)" stroke="none"/>
    </g>
    <g text-rendering="geometricPrecision" stroke-miterlimit="1.45" shape-rendering="geometricPrecision" transform="matrix(1,0,0,1,8,-46)" stroke-linecap="butt">
      <rect fill="none" x="102.5" width="30" height="30" y="306" clip-path="url(#clipPath2)"/>
    </g>
    <g fill="silver" text-rendering="geometricPrecision" shape-rendering="geometricPrecision" transform="matrix(1,0,0,1,8,-46)" stroke="silver">
      <rect x="180.5" width="30" height="30" y="306" clip-path="url(#clipPath2)" stroke="none"/>
    </g>
    <g text-rendering="geometricPrecision" stroke-miterlimit="1.45" shape-rendering="geometricPrecision" transform="matrix(1,0,0,1,8,-46)" stroke-linecap="butt">
      <rect fill="none" x="180.5" width="30" height="30" y="306" clip-path="url(#clipPath2)"/>
    </g>
    <g fill="silver" text-rendering="geometricPrecision" shape-rendering="geometricPrecision" transform="matrix(1,0,0,1,8,-46)" stroke="silver">
      <rect x="264" width="30" height="30" y="306" clip-path="url(#clipPath2)" stroke="none"/>
    </g>
    <g text-rendering="geometricPrecision" stroke-miterlimit="1.45" shape-rendering="geometricPrecision" transform="matrix(1,0,0,1,8,-46)" stroke-linecap="butt">
      <rect fill="none" x="264" width="30" height="30" y="306" clip-path="url(#clipPath2)"/>
    </g>
    <g fill="silver" text-rendering="geometricPrecision" shape-rendering="geometricPrecision" transform="matrix(1,0,0,1,8,-46)" stroke="silver">
      <rect x="48.5" width="30" height="30" y="366" clip-path="url(#clipPath2)" stroke="none"/>
    </g>
    <g text-rendering="geometricPrecision" stroke-miterlimit="1.45" shape-rendering="geometricPrecision" transform="matrix(1,0,0,1,8,-46)" stroke-linecap="butt">
      <rect fill="none" x="48.5" width="30" height="30" y="366" clip-path="url(#clipPath2)"/>
    </g>
    <g fill="silver" text-rendering="geometricPrecision" shape-rendering="geometricPrecision" transform="matrix(1,0,0,1,8,-46)" stroke="silver">
      <rect x="84.75" width="30" height="30" y="366" clip-path="url(#clipPath2)" stroke="none"/>
    </g>
    <g text-rendering="geometricPrecision" stroke-miterlimit="1.45" shape-rendering="geometricPrecision" transform="matrix(1,0,0,1,8,-46)" stroke-linecap="butt">
      <rect fill="none" x="84.75" width="30" height="30" y="366" clip-path="url(#clipPath2)"/>
    </g>
    <g fill="silver" text-rendering="geometricPrecision" shape-rendering="geometricPrecision" transform="matrix(1,0,0,1,8,-46)" stroke="silver">
      <rect x="121" width="30" height="30" y="366" clip-path="url(#clipPath2)" stroke="none"/>
    </g>
    <g text-rendering="geometricPrecision" stroke-miterlimit="1.45" shape-rendering="geometricPrecision" transform="matrix(1,0,0,1,8,-46)" stroke-linecap="butt">
      <rect fill="none" x="121" width="30" height="30" y="366" clip-path="url(#clipPath2)"/>
    </g>
    <g fill="silver" text-rendering="geometricPrecision" shape-rendering="geometricPrecision" transform="matrix(1,0,0,1,8,-46)" stroke="silver">
      <rect x="162.5" width="30" height="30" y="366" clip-path="url(#clipPath2)" stroke="none"/>
    </g>
    <g text-rendering="geometricPrecision" stroke-miterlimit="1.45" shape-rendering="geometricPrecision" transform="matrix(1,0,0,1,8,-46)" stroke-linecap="butt">
      <rect fill="none" x="162.5" width="30" height="30" y="366" clip-path="url(#clipPath2)"/>
    </g>
    <g fill="silver" text-rendering="geometricPrecision" shape-rendering="geometricPrecision" transform="matrix(1,0,0,1,8,-46)" stroke="silver">
      <rect x="7.25" width="30" height="30" y="366" clip-path="url(#clipPath2)" stroke="none"/>
    </g>
    <g text-rendering="geometricPrecision" stroke-miterlimit="1.45" shape-rendering="geometricPrecision" transform="matrix(1,0,0,1,8,-46)" stroke-linecap="butt">
      <rect fill="none" x="7.25" width="30" height="30" y="366" clip-path="url(#clipPath2)"/>
    </g>
    <g fill="silver" text-rendering="geometricPrecision" shape-rendering="geometricPrecision" transform="matrix(1,0,0,1,8,-46)" stroke="silver">
      <rect x="204" width="30" height="30" y="366" clip-path="url(#clipPath2)" stroke="none"/>
    </g>
    <g text-rendering="geometricPrecision" stroke-miterlimit="1.45" shape-rendering="geometricPrecision" transform="matrix(1,0,0,1,8,-46)" stroke-linecap="butt">
      <rect fill="none" x="204" width="30" height="30" y="366" clip-path="url(#clipPath2)"/>
    </g>
    <g fill="silver" text-rendering="geometricPrecision" shape-rendering="geometricPrecision" transform="matrix(1,0,0,1,8,-46)" stroke="silver">
      <rect x="243.25" width="30" height="30" y="366" clip-path="url(#clipPath2)" stroke="none"/>
    </g>
    <g text-rendering="geometricPrecision" stroke-miterlimit="1.45" shape-rendering="geometricPrecision" transform="matrix(1,0,0,1,8,-46)" stroke-linecap="butt">
      <rect fill="none" x="243.25" width="30" height="30" y="366" clip-path="url(#clipPath2)"/>
    </g>
    <g fill="silver" text-rendering="geometricPrecision" shape-rendering="geometricPrecision" transform="matrix(1,0,0,1,8,-46)" stroke="silver">
      <rect x="288" width="30" height="30" y="366" clip-path="url(#clipPath2)" stroke="none"/>
    </g>
    <g text-rendering="geometricPrecision" stroke-miterlimit="1.45" shape-rendering="geometricPrecision" transform="matrix(1,0,0,1,8,-46)" stroke-linecap="butt">
      <rect fill="none" x="288" width="30" height="30" y="366" clip-path="url(#clipPath2)"/>
    </g>
    <g fill="silver" text-rendering="geometricPrecision" shape-rendering="geometricPrecision" transform="matrix(1,0,0,1,8,-46)" stroke="silver">
      <rect x="348" width="30" height="30" y="306" clip-path="url(#clipPath2)" stroke="none"/>
    </g>
    <g text-rendering="geometricPrecision" stroke-miterlimit="1.45" shape-rendering="geometricPrecision" transform="matrix(1,0,0,1,8,-46)" stroke-linecap="butt">
      <rect fill="none" x="348" width="30" height="30" y="306" clip-path="url(#clipPath2)"/>
    </g>
    <g fill="silver" text-rendering="geometricPrecision" shape-rendering="geometricPrecision" transform="matrix(1,0,0,1,8,-46)" stroke="silver">
      <rect x="442.5" width="30" height="30" y="306" clip-path="url(#clipPath2)" stroke="none"/>
    </g>
    <g text-rendering="geometricPrecision" stroke-miterlimit="1.45" shape-rendering="geometricPrecision" transform="matrix(1,0,0,1,8,-46)" stroke-linecap="butt">
      <rect fill="none" x="442.5" width="30" height="30" y="306" clip-path="url(#clipPath2)"/>
    </g>
    <g fill="silver" text-rendering="geometricPrecision" shape-rendering="geometricPrecision" transform="matrix(1,0,0,1,8,-46)" stroke="silver">
      <rect x="332.75" width="30" height="30" y="366" clip-path="url(#clipPath2)" stroke="none"/>
    </g>
    <g text-rendering="geometricPrecision" stroke-miterlimit="1.45" shape-rendering="geometricPrecision" transform="matrix(1,0,0,1,8,-46)" stroke-linecap="butt">
      <rect fill="none" x="332.75" width="30" height="30" y="366" clip-path="url(#clipPath2)"/>
    </g>
    <g fill="silver" text-rendering="geometricPrecision" shape-rendering="geometricPrecision" transform="matrix(1,0,0,1,8,-46)" stroke="silver">
      <rect x="378" width="30" height="30" y="366" clip-path="url(#clipPath2)" stroke="none"/>
    </g>
    <g text-rendering="geometricPrecision" stroke-miterlimit="1.45" shape-rendering="geometricPrecision" transform="matrix(1,0,0,1,8,-46)" stroke-linecap="butt">
      <rect fill="none" x="378" width="30" height="30" y="366" clip-path="url(#clipPath2)"/>
    </g>
    <g fill="silver" text-rendering="geometricPrecision" shape-rendering="geometricPrecision" transform="matrix(1,0,0,1,8,-46)" stroke="silver">
      <rect x="421" width="30" height="30" y="366" clip-path="url(#clipPath2)" stroke="none"/>
    </g>
    <g text-rendering="geometricPrecision" stroke-miterlimit="1.45" shape-rendering="geometricPrecision" transform="matrix(1,0,0,1,8,-46)" stroke-linecap="butt">
      <rect fill="none" x="421" width="30" height="30" y="366" clip-path="url(#clipPath2)"/>
    </g>
    <g fill="silver" text-rendering="geometricPrecision" shape-rendering="geometricPrecision" transform="matrix(1,0,0,1,8,-46)" stroke="silver">
      <rect x="464" width="30" height="30" y="366" clip-path="url(#clipPath2)" stroke="none"/>
    </g>
    <g text-rendering="geometricPrecision" stroke-miterlimit="1.45" shape-rendering="geometricPrecision" transform="matrix(1,0,0,1,8,-46)" stroke-linecap="butt">
      <rect fill="none" x="464" width="30" height="30" y="366" clip-path="url(#clipPath2)"/>
    </g>
    <g fill="silver" text-rendering="geometricPrecision" shape-rendering="geometricPrecision" transform="matrix(1,0,0,1,8,-46)" stroke="silver">
      <rect x="593" width="30" height="30" y="366" clip-path="url(#clipPath2)" stroke="none"/>
    </g>
    <g text-rendering="geometricPrecision" stroke-miterlimit="1.45" shape-rendering="geometricPrecision" transform="matrix(1,0,0,1,8,-46)" stroke-linecap="butt">
      <rect fill="none" x="593" width="30" height="30" y="366" clip-path="url(#clipPath2)"/>
    </g>
    <g fill="silver" text-rendering="geometricPrecision" shape-rendering="geometricPrecision" transform="matrix(1,0,0,1,8,-46)" stroke="silver">
      <rect x="631" width="30" height="30" y="366" clip-path="url(#clipPath2)" stroke="none"/>
    </g>
    <g text-rendering="geometricPrecision" stroke-miterlimit="1.45" shape-rendering="geometricPrecision" transform="matrix(1,0,0,1,8,-46)" stroke-linecap="butt">
      <rect fill="none" x="631" width="30" height="30" y="366" clip-path="url(#clipPath2)"/>
    </g>
    <g fill="rgb(255,102,0)" text-rendering="geometricPrecision" shape-rendering="geometricPrecision" transform="matrix(1,0,0,1,8,-46)" stroke="rgb(255,102,0)">
      <ellipse rx="24.125" ry="15" clip-path="url(#clipPath2)" cx="142.375" cy="199.5" stroke="none"/>
    </g>
    <g text-rendering="geometricPrecision" stroke-miterlimit="1.45" shape-rendering="geometricPrecision" font-family="sans-serif" transform="matrix(1,0,0,1,8,-46)" stroke-linecap="butt">
      <text x="124.2549" xml:space="preserve" y="203.6543" clip-path="url(#clipPath2)" stroke="none">Water</text>
    </g>
    <g fill="rgb(255,102,0)" text-rendering="geometricPrecision" shape-rendering="geometricPrecision" transform="matrix(1,0,0,1,8,-46)" stroke="rgb(255,102,0)">
      <ellipse rx="24.125" ry="15" clip-path="url(#clipPath2)" cx="356.875" cy="265" stroke="none"/>
    </g>
    <g text-rendering="geometricPrecision" stroke-miterlimit="1.45" shape-rendering="geometricPrecision" font-family="sans-serif" transform="matrix(1,0,0,1,8,-46)" stroke-linecap="butt">
      <text x="338.1162" xml:space="preserve" y="269.1543" clip-path="url(#clipPath2)" stroke="none">Forest</text>
    </g>
    <g fill="rgb(255,102,0)" text-rendering="geometricPrecision" shape-rendering="geometricPrecision" transform="matrix(1,0,0,1,8,-46)" stroke="rgb(255,102,0)">
      <ellipse rx="24.125" ry="19.5" clip-path="url(#clipPath2)" cx="522" cy="431" stroke="none"/>
    </g>
    <g text-rendering="geometricPrecision" stroke-miterlimit="1.45" shape-rendering="geometricPrecision" font-family="sans-serif" transform="matrix(1,0,0,1,8,-46)" stroke-linecap="butt">
      <text x="510.2607" xml:space="preserve" y="428.1699" clip-path="url(#clipPath2)" stroke="none">Hay</text>
      <text x="507.7148" xml:space="preserve" y="442.1387" clip-path="url(#clipPath2)" stroke="none">Field</text>
    </g>
    <g fill="rgb(255,102,0)" text-rendering="geometricPrecision" shape-rendering="geometricPrecision" transform="matrix(1,0,0,1,8,-46)" stroke="rgb(255,102,0)">
      <ellipse rx="24.125" ry="19.5" clip-path="url(#clipPath2)" cx="576.875" cy="431" stroke="none"/>
    </g>
    <g text-rendering="geometricPrecision" stroke-miterlimit="1.45" shape-rendering="geometricPrecision" font-family="sans-serif" transform="matrix(1,0,0,1,8,-46)" stroke-linecap="butt">
      <text x="559.6631" xml:space="preserve" y="428.1699" clip-path="url(#clipPath2)" stroke="none">Straw</text>
      <text x="562.5898" xml:space="preserve" y="442.1387" clip-path="url(#clipPath2)" stroke="none">Field</text>
    </g>
    <g fill="rgb(255,102,0)" text-rendering="geometricPrecision" shape-rendering="geometricPrecision" transform="matrix(1,0,0,1,8,-46)" stroke="rgb(255,102,0)">
      <ellipse rx="24.125" ry="19.5" clip-path="url(#clipPath2)" cx="677.125" cy="325.5" stroke="none"/>
    </g>
    <g text-rendering="geometricPrecision" stroke-miterlimit="1.45" shape-rendering="geometricPrecision" font-family="sans-serif" transform="matrix(1,0,0,1,8,-46)" stroke-linecap="butt">
      <text x="662.8867" xml:space="preserve" y="322.6699" clip-path="url(#clipPath2)" stroke="none">Dark</text>
      <text x="666.3115" xml:space="preserve" y="336.6387" clip-path="url(#clipPath2)" stroke="none">Soil</text>
    </g>
    <g fill="rgb(255,255,204)" text-rendering="geometricPrecision" shape-rendering="geometricPrecision" transform="matrix(1,0,0,1,8,-46)" stroke="rgb(255,255,204)">
      <rect x="22" width="170" height="89.5" y="61.25" clip-path="url(#clipPath2)" stroke="none"/>
    </g>
    <g text-rendering="geometricPrecision" stroke-miterlimit="1.45" shape-rendering="geometricPrecision" transform="matrix(1,0,0,1,8,-46)" stroke-linecap="butt">
      <rect fill="none" x="22" width="170" height="89.5" y="61.25" clip-path="url(#clipPath2)"/>
      <text x="60.5176" xml:space="preserve" y="82.2168" clip-path="url(#clipPath2)" font-family="sans-serif" stroke="none">DECISION TREE</text>
      <text x="76.0654" xml:space="preserve" y="96.1855" clip-path="url(#clipPath2)" font-family="sans-serif" stroke="none">Depth = 4</text>
      <text x="38.9287" xml:space="preserve" y="110.1543" clip-path="url(#clipPath2)" font-family="sans-serif" stroke="none">Number of classes = 5</text>
      <text x="59.208" xml:space="preserve" y="124.123" clip-path="url(#clipPath2)" font-family="sans-serif" stroke="none">N features = 13</text>
      <text x="46.6895" xml:space="preserve" y="138.0918" clip-path="url(#clipPath2)" font-family="sans-serif" stroke="none">N used features = 4</text>
      <path fill="none" d="M309.1571 121 L217.0826 184.5935" clip-path="url(#clipPath2)"/>
      <path d="M210.5 189.1399 L223.2153 186.4344 L217.9054 184.0252 L217.5323 178.2062 Z" clip-path="url(#clipPath2)" stroke="none"/>
      <path fill="none" d="M356.0668 121 L468.4344 187.9072" clip-path="url(#clipPath2)"/>
      <path d="M475.3082 192 L467.5556 181.5646 L467.5752 187.3955 L462.4395 190.1568 Z" clip-path="url(#clipPath2)" stroke="none"/>
      <path fill="none" d="M523.868 222 L554.5246 241.6785" clip-path="url(#clipPath2)"/>
      <path d="M561.257 246 L553.8594 235.31 L553.683 241.1383 L548.4575 243.7255 Z" clip-path="url(#clipPath2)" stroke="none"/>
      <path fill="none" d="M477.1595 222 L431.98 251.035" clip-path="url(#clipPath2)"/>
      <path d="M425.25 255.3601 L438.0482 253.0787 L432.8213 250.4944 L432.6418 244.6662 Z" clip-path="url(#clipPath2)" stroke="none"/>
      <path fill="none" d="M573.1875 276 L555.1633 299.6384" clip-path="url(#clipPath2)"/>
      <path d="M550.3125 306 L561.5646 299.4893 L555.7696 298.8431 L553.6126 293.4258 Z" clip-path="url(#clipPath2)" stroke="none"/>
      <path fill="none" d="M534.6562 336 L528.3847 358.2988" clip-path="url(#clipPath2)"/>
      <path d="M526.2188 366 L534.2809 355.8019 L528.6555 357.3362 L524.6544 353.0945 Z" clip-path="url(#clipPath2)" stroke="none"/>
      <path fill="none" d="M595.2188 276 L611.7912 299.4654" clip-path="url(#clipPath2)"/>
      <path d="M616.4062 306 L613.5678 293.3137 L611.2143 298.6486 L605.3995 299.0825 Z" clip-path="url(#clipPath2)" stroke="none"/>
      <path fill="none" d="M545.4062 336 L555.275 358.6651" clip-path="url(#clipPath2)"/>
      <path d="M558.4688 366 L558.2625 353.0016 L554.8758 357.7483 L549.0939 356.9938 Z" clip-path="url(#clipPath2)" stroke="none"/>
      <path fill="none" d="M180.5 208.5278 L109.3543 251.3469" clip-path="url(#clipPath2)"/>
      <path d="M102.5 255.4722 L115.3598 253.5682 L110.2111 250.8313 L110.2032 245.0003 Z" clip-path="url(#clipPath2)" stroke="none"/>
      <path fill="none" d="M205.1346 214.5 L223.2919 242.7689" clip-path="url(#clipPath2)"/>
      <path d="M227.6154 249.5 L225.3372 236.7012 L222.7515 241.9275 L216.9233 242.1055 Z" clip-path="url(#clipPath2)" stroke="none"/>
      <path fill="none" d="M76.4823 279.5 L61.7536 299.5524" clip-path="url(#clipPath2)"/>
      <path d="M57.0177 306 L68.1512 299.2885 L62.3455 298.7464 L60.0917 293.3687 Z" clip-path="url(#clipPath2)" stroke="none"/>
      <path fill="none" d="M95.4646 279.5 L105.7837 298.9343" clip-path="url(#clipPath2)"/>
      <path d="M109.5354 306 L108.3239 293.0566 L105.3147 298.0511 L99.4917 297.7462 Z" clip-path="url(#clipPath2)" stroke="none"/>
      <path fill="none" d="M226.1659 279.5 L211.3384 299.566" clip-path="url(#clipPath2)"/>
      <path d="M206.5841 306 L217.7368 299.3205 L211.9327 298.7617 L209.6943 293.3775 Z" clip-path="url(#clipPath2)" stroke="none"/>
      <path fill="none" d="M248.3341 279.5 L263.1616 299.566" clip-path="url(#clipPath2)"/>
      <path d="M267.9159 306 L264.8057 293.3775 L262.5673 298.7617 L256.7632 299.3205 Z" clip-path="url(#clipPath2)" stroke="none"/>
      <path fill="none" d="M50.375 336 L56.885 358.32" clip-path="url(#clipPath2)"/>
      <path d="M59.125 366 L60.565 353.08 L56.605 357.36 L50.965 355.88 Z" clip-path="url(#clipPath2)" stroke="none"/>
      <path fill="none" d="M113.0625 336 L106.4569 358.3286" clip-path="url(#clipPath2)"/>
      <path d="M104.1875 366 L112.3863 355.9114 L106.7406 357.3697 L102.7971 353.0746 Z" clip-path="url(#clipPath2)" stroke="none"/>
      <path fill="none" d="M122.125 336 L129.0178 358.3551" clip-path="url(#clipPath2)"/>
      <path d="M131.375 366 L132.6173 353.0595 L128.7232 357.3995 L123.0612 356.006 Z" clip-path="url(#clipPath2)" stroke="none"/>
      <path fill="none" d="M191 336 L184.2988 358.3374" clip-path="url(#clipPath2)"/>
      <path d="M182 366 L190.2373 355.9428 L184.5861 357.3796 L180.659 353.0693 Z" clip-path="url(#clipPath2)" stroke="none"/>
      <path fill="none" d="M40.0625 336 L31.1319 358.5616" clip-path="url(#clipPath2)"/>
      <path d="M28.1875 366 L37.2531 356.6826 L31.4999 357.6317 L27.955 353.0021 Z" clip-path="url(#clipPath2)" stroke="none"/>
      <path fill="none" d="M201.375 336 L210.2075 358.551" clip-path="url(#clipPath2)"/>
      <path d="M213.125 366 L213.4043 353.003 L209.8428 357.6198 L204.093 356.6499 Z" clip-path="url(#clipPath2)" stroke="none"/>
      <path fill="none" d="M273.8125 336 L266.0522 358.4394" clip-path="url(#clipPath2)"/>
      <path d="M263.4375 366 L272.085 356.2932 L266.3791 357.4943 L262.6342 353.0248 Z" clip-path="url(#clipPath2)" stroke="none"/>
      <path fill="none" d="M285 336 L294.0289 358.5722" clip-path="url(#clipPath2)"/>
      <path d="M297 366 L297.1857 353.0013 L293.6575 357.6437 L287.9009 356.7152 Z" clip-path="url(#clipPath2)" stroke="none"/>
      <path fill="none" d="M397.5938 280 L380.8152 299.8857" clip-path="url(#clipPath2)"/>
      <path d="M375.6562 306 L387.2162 300.0529 L381.4601 299.1214 L379.5732 293.6042 Z" clip-path="url(#clipPath2)" stroke="none"/>
      <path fill="none" d="M422.9062 280 L439.6848 299.8857" clip-path="url(#clipPath2)"/>
      <path d="M444.8438 306 L440.9268 293.6042 L439.0399 299.1214 L433.2838 300.0529 Z" clip-path="url(#clipPath2)" stroke="none"/>
      <path fill="none" d="M359.1875 336 L353.5332 358.2465" clip-path="url(#clipPath2)"/>
      <path d="M351.5625 366 L359.3644 355.6014 L353.7795 357.2773 L349.6726 353.1381 Z" clip-path="url(#clipPath2)" stroke="none"/>
      <path fill="none" d="M370.5 336 L381.9223 358.8446" clip-path="url(#clipPath2)"/>
      <path d="M385.5 366 L384.6056 353.0308 L381.4751 357.9501 L375.6613 357.5029 Z" clip-path="url(#clipPath2)" stroke="none"/>
      <path fill="none" d="M452.125 336 L444.0736 358.4689" clip-path="url(#clipPath2)"/>
      <path d="M441.375 366 L450.1299 356.39 L444.411 357.5275 L440.716 353.0167 Z" clip-path="url(#clipPath2)" stroke="none"/>
      <path fill="none" d="M462.875 336 L470.9264 358.4689" clip-path="url(#clipPath2)"/>
      <path d="M473.625 366 L474.284 353.0167 L470.589 357.5275 L464.8701 356.39 Z" clip-path="url(#clipPath2)" stroke="none"/>
      <path fill="none" d="M622.25 336 L615.1652 358.3733" clip-path="url(#clipPath2)"/>
      <path d="M612.75 366 L621.1395 356.0694 L615.467 357.4199 L611.606 353.0504 Z" clip-path="url(#clipPath2)" stroke="none"/>
      <path fill="none" d="M631.75 336 L638.8348 358.3733" clip-path="url(#clipPath2)"/>
      <path d="M641.25 366 L642.394 353.0504 L638.533 357.4199 L632.8605 356.0694 Z" clip-path="url(#clipPath2)" stroke="none"/>
    </g>
  </g>
</svg>
