<?xml version="1.0" encoding="UTF-8"?><svg xmlns="http://www.w3.org/2000/svg" xmlns:xlink="http://www.w3.org/1999/xlink" fill-opacity="1" color-rendering="auto" color-interpolation="auto" text-rendering="auto" stroke="black" stroke-linecap="square" width="488" stroke-miterlimit="10" shape-rendering="auto" stroke-opacity="1" fill="black" stroke-dasharray="none" font-weight="normal" stroke-width="1" height="264" font-family="'Dialog'" font-style="normal" stroke-linejoin="miter" font-size="12px" stroke-dashoffset="0" image-rendering="auto">
  <!--Generated by ySVG 2.5-->
  <defs id="genericDefs"/>
  <g>
    <defs id="defs1">
      <clipPath clipPathUnits="userSpaceOnUse" id="clipPath1">
        <path d="M0 0 L488 0 L488 264 L0 264 L0 0 Z"/>
      </clipPath>
      <clipPath clipPathUnits="userSpaceOnUse" id="clipPath2">
        <path d="M172 15 L660 15 L660 279 L172 279 L172 15 Z"/>
      </clipPath>
    </defs>
    <g fill="white" text-rendering="geometricPrecision" shape-rendering="geometricPrecision" transform="translate(-172,-15)" stroke="white">
      <rect x="172" width="488" height="264" y="15" clip-path="url(#clipPath2)" stroke="none"/>
    </g>
    <g fill="rgb(255,204,0)" text-rendering="geometricPrecision" shape-rendering="geometricPrecision" transform="matrix(1,0,0,1,-172,-15)" stroke="rgb(255,204,0)">
      <circle r="33" clip-path="url(#clipPath2)" cx="495" cy="199" stroke="none"/>
    </g>
    <g text-rendering="geometricPrecision" stroke-miterlimit="1.45" shape-rendering="geometricPrecision" transform="matrix(1,0,0,1,-172,-15)" stroke-linecap="butt">
      <circle fill="none" r="33" clip-path="url(#clipPath2)" cx="495" cy="199"/>
    </g>
    <g fill="rgb(255,204,0)" text-rendering="geometricPrecision" shape-rendering="geometricPrecision" transform="matrix(1,0,0,1,-172,-15)" stroke="rgb(255,204,0)">
      <rect x="187" y="71" clip-path="url(#clipPath2)" width="30" rx="4" ry="4" height="30" stroke="none"/>
    </g>
    <g text-rendering="geometricPrecision" stroke-miterlimit="1.45" shape-rendering="geometricPrecision" transform="matrix(1,0,0,1,-172,-15)" stroke-linecap="butt">
      <rect x="187" y="71" clip-path="url(#clipPath2)" fill="none" width="30" rx="4" ry="4" height="30"/>
      <text x="194.6318" xml:space="preserve" y="90.1543" clip-path="url(#clipPath2)" font-family="sans-serif" stroke="none">x1</text>
    </g>
    <g fill="rgb(255,204,0)" text-rendering="geometricPrecision" shape-rendering="geometricPrecision" transform="matrix(1,0,0,1,-172,-15)" stroke="rgb(255,204,0)">
      <rect x="187" y="112" clip-path="url(#clipPath2)" width="30" rx="4" ry="4" height="30" stroke="none"/>
    </g>
    <g text-rendering="geometricPrecision" stroke-miterlimit="1.45" shape-rendering="geometricPrecision" transform="matrix(1,0,0,1,-172,-15)" stroke-linecap="butt">
      <rect x="187" y="112" clip-path="url(#clipPath2)" fill="none" width="30" rx="4" ry="4" height="30"/>
      <text x="194.6318" xml:space="preserve" y="131.1543" clip-path="url(#clipPath2)" font-family="sans-serif" stroke="none">x2</text>
    </g>
    <g fill="rgb(255,204,0)" text-rendering="geometricPrecision" shape-rendering="geometricPrecision" transform="matrix(1,0,0,1,-172,-15)" stroke="rgb(255,204,0)">
      <rect x="187" y="153" clip-path="url(#clipPath2)" width="30" rx="4" ry="4" height="30" stroke="none"/>
    </g>
    <g text-rendering="geometricPrecision" stroke-miterlimit="1.45" shape-rendering="geometricPrecision" transform="matrix(1,0,0,1,-172,-15)" stroke-linecap="butt">
      <rect x="187" y="153" clip-path="url(#clipPath2)" fill="none" width="30" rx="4" ry="4" height="30"/>
      <text x="194.6318" xml:space="preserve" y="172.1543" clip-path="url(#clipPath2)" font-family="sans-serif" stroke="none">x3</text>
    </g>
    <g fill="rgb(255,204,0)" text-rendering="geometricPrecision" shape-rendering="geometricPrecision" transform="matrix(1,0,0,1,-172,-15)" stroke="rgb(255,204,0)">
      <rect x="187" y="199" clip-path="url(#clipPath2)" width="30" rx="4" ry="4" height="30" stroke="none"/>
    </g>
    <g text-rendering="geometricPrecision" stroke-miterlimit="1.45" shape-rendering="geometricPrecision" transform="matrix(1,0,0,1,-172,-15)" stroke-linecap="butt">
      <rect x="187" y="199" clip-path="url(#clipPath2)" fill="none" width="30" rx="4" ry="4" height="30"/>
      <text x="194.6318" xml:space="preserve" y="218.1543" clip-path="url(#clipPath2)" font-family="sans-serif" stroke="none">x4</text>
      <text x="330.7754" xml:space="preserve" y="139.4743" clip-path="url(#clipPath2)" font-family="sans-serif" stroke="none">w1</text>
      <text x="330.7754" xml:space="preserve" y="167.2343" clip-path="url(#clipPath2)" font-family="sans-serif" stroke="none">w2</text>
      <text x="330.7754" xml:space="preserve" y="194.9943" clip-path="url(#clipPath2)" font-family="sans-serif" stroke="none">w3</text>
      <text x="330.7754" xml:space="preserve" y="221.1543" clip-path="url(#clipPath2)" font-family="sans-serif" stroke="none">w4</text>
      <text x="471.4093" font-size="30px" y="209.3857" clip-path="url(#clipPath2)" font-family="sans-serif" stroke="none" xml:space="preserve">Σ</text>
      <text x="486.5771" font-size="50px" y="211.7782" clip-path="url(#clipPath2)" font-family="sans-serif" stroke="none" xml:space="preserve">|</text>
    </g>
    <g fill="rgb(255,204,0)" text-rendering="geometricPrecision" shape-rendering="geometricPrecision" transform="matrix(1,0,0,1,-172,-15)" stroke="rgb(255,204,0)">
      <rect x="614.3668" y="184" clip-path="url(#clipPath2)" width="30" rx="4" ry="4" height="30" stroke="none"/>
    </g>
    <g text-rendering="geometricPrecision" stroke-miterlimit="1.45" shape-rendering="geometricPrecision" transform="matrix(1,0,0,1,-172,-15)" stroke-linecap="butt">
      <rect x="614.3668" y="184" clip-path="url(#clipPath2)" fill="none" width="30" rx="4" ry="4" height="30"/>
      <text x="625.816" xml:space="preserve" y="203.1543" clip-path="url(#clipPath2)" font-family="sans-serif" stroke="none">y</text>
    </g>
    <g fill="rgb(255,204,0)" text-rendering="geometricPrecision" shape-rendering="geometricPrecision" transform="matrix(1,0,0,1,-172,-15)" stroke="rgb(255,204,0)">
      <rect x="187" y="30" clip-path="url(#clipPath2)" width="30" rx="4" ry="4" height="30" stroke="none"/>
    </g>
    <g text-rendering="geometricPrecision" stroke-miterlimit="1.45" shape-rendering="geometricPrecision" transform="matrix(1,0,0,1,-172,-15)" stroke-linecap="butt">
      <rect x="187" y="30" clip-path="url(#clipPath2)" fill="none" width="30" rx="4" ry="4" height="30"/>
      <text x="198.1826" xml:space="preserve" y="49.1543" clip-path="url(#clipPath2)" font-family="sans-serif" stroke="none">1</text>
      <text x="330.7754" xml:space="preserve" y="109.4743" clip-path="url(#clipPath2)" font-family="sans-serif" stroke="none">w0</text>
      <text x="381.6613" y="150.2491" clip-path="url(#clipPath2)" fill="blue" font-family="sans-serif" stroke="none" xml:space="preserve">i1</text>
      <text x="477.0782" y="225.0785" clip-path="url(#clipPath2)" fill="blue" font-family="sans-serif" stroke="none" xml:space="preserve">S</text>
      <text x="501.923" y="224.8077" clip-path="url(#clipPath2)" fill="blue" font-family="sans-serif" stroke="none" xml:space="preserve">O</text>
      <path fill="none" d="M217.0055 91.3823 L324.5172 129.9458" clip-path="url(#clipPath2)"/>
      <path fill="none" d="M354.4957 141.461 L457.0583 183.4622" clip-path="url(#clipPath2)" stroke="blue"/>
      <path fill="blue" d="M464.4615 186.494 L455.2515 177.3193 L456.1328 183.0832 L451.4618 186.5733 Z" clip-path="url(#clipPath2)" stroke="none"/>
      <path fill="none" d="M217.0055 130.9374 L324.5172 159.1485" clip-path="url(#clipPath2)"/>
      <path fill="none" d="M354.4957 166.544 L455.0519 189.7721" clip-path="url(#clipPath2)"/>
      <path d="M462.8467 191.5727 L452.2799 184.0001 L454.0776 189.5471 L450.0292 193.7436 Z" clip-path="url(#clipPath2)" stroke="none"/>
      <path fill="none" d="M217.0055 170.4926 L324.5172 188.3512" clip-path="url(#clipPath2)"/>
      <path fill="none" d="M354.4957 191.6269 L454.0563 196.8514" clip-path="url(#clipPath2)"/>
      <path d="M462.0453 197.2707 L450.3239 191.6487 L453.0577 196.799 L449.7998 201.6349 Z" clip-path="url(#clipPath2)" stroke="none"/>
      <path fill="none" d="M217.0055 214.3274 L324.5172 216.6731" clip-path="url(#clipPath2)"/>
      <path fill="none" d="M354.4957 215.2642 L454.2719 203.7145" clip-path="url(#clipPath2)"/>
      <path d="M462.2189 202.7946 L449.7235 199.2076 L453.2786 203.8295 L450.8734 209.1413 Z" clip-path="url(#clipPath2)" stroke="none"/>
    </g>
    <g stroke-linecap="butt" transform="matrix(1,0,0,1,-172,-15)" fill="blue" text-rendering="geometricPrecision" shape-rendering="geometricPrecision" stroke="blue" stroke-miterlimit="1.45">
      <path fill="none" d="M527.9872 199 L603.3678 199" clip-path="url(#clipPath2)"/>
      <path d="M614.3678 199 L602.3678 193 L602.3678 205 Z" clip-path="url(#clipPath2)" stroke="none"/>
    </g>
    <g text-rendering="geometricPrecision" stroke-miterlimit="1.45" shape-rendering="geometricPrecision" transform="matrix(1,0,0,1,-172,-15)" stroke-linecap="butt">
      <path fill="none" d="M499.1947 209.8013 L502.8162 209.6231 L506.5854 207.9058 L509.1396 204.7163 L510.4786 200.0548 L510.8037 197.6558 L512.1294 192.9905 L514.6436 189.7898 L518.3461 188.0537 L521.6705 187.8691" clip-path="url(#clipPath2)"/>
      <path fill="none" d="M217.0055 51.5828 L324.5172 98.7472" clip-path="url(#clipPath2)"/>
      <path fill="none" d="M354.4957 114.3541 L459.8807 177.8426" clip-path="url(#clipPath2)"/>
      <path d="M466.7332 181.9709 L459.0346 171.4956 L459.0241 177.3266 L453.8743 180.0613 Z" clip-path="url(#clipPath2)" stroke="none"/>
    </g>
  </g>
</svg>
