<?xml version="1.0" encoding="UTF-8"?><svg xmlns="http://www.w3.org/2000/svg" xmlns:xlink="http://www.w3.org/1999/xlink" fill-opacity="1" color-rendering="auto" color-interpolation="auto" text-rendering="auto" stroke="black" stroke-linecap="square" width="579" stroke-miterlimit="10" shape-rendering="auto" stroke-opacity="1" fill="black" stroke-dasharray="none" font-weight="normal" stroke-width="1" height="487" font-family="'Dialog'" font-style="normal" stroke-linejoin="miter" font-size="12px" stroke-dashoffset="0" image-rendering="auto">
  <!--Generated by ySVG 2.5-->
  <defs id="genericDefs"/>
  <g>
    <defs id="defs1">
      <clipPath clipPathUnits="userSpaceOnUse" id="clipPath1">
        <path d="M0 0 L579 0 L579 487 L0 487 L0 0 Z"/>
      </clipPath>
      <clipPath clipPathUnits="userSpaceOnUse" id="clipPath2">
        <path d="M-335 -182 L244 -182 L244 305 L-335 305 L-335 -182 Z"/>
      </clipPath>
    </defs>
    <g fill="white" text-rendering="geometricPrecision" shape-rendering="geometricPrecision" transform="translate(335,182)" stroke="white">
      <rect x="-335" width="579" height="487" y="-182" clip-path="url(#clipPath2)" stroke="none"/>
    </g>
    <g transform="matrix(1,0,0,1,335,182)" fill-opacity="0.7059" fill="rgb(222,222,222)" text-rendering="geometricPrecision" shape-rendering="geometricPrecision" stroke="rgb(222,222,222)" stroke-opacity="0.7059">
      <rect x="-240" y="-150" clip-path="url(#clipPath2)" width="392" rx="4" ry="4" height="358" stroke="none"/>
    </g>
    <g text-rendering="geometricPrecision" stroke-miterlimit="1.45" shape-rendering="geometricPrecision" transform="matrix(1,0,0,1,335,182)" stroke-linecap="butt">
      <rect x="-240" y="-150" clip-path="url(#clipPath2)" fill="none" width="392" rx="4" ry="4" height="358"/>
    </g>
    <g fill="rgb(255,204,0)" text-rendering="geometricPrecision" shape-rendering="geometricPrecision" transform="matrix(1,0,0,1,335,182)" stroke="rgb(255,204,0)">
      <circle r="15" clip-path="url(#clipPath2)" cx="-210" cy="-120" stroke="none"/>
    </g>
    <g text-rendering="geometricPrecision" stroke-miterlimit="1.45" shape-rendering="geometricPrecision" transform="matrix(1,0,0,1,335,182)" stroke-linecap="butt">
      <circle fill="none" r="15" clip-path="url(#clipPath2)" cx="-210" cy="-120"/>
    </g>
    <g fill="rgb(255,204,0)" text-rendering="geometricPrecision" shape-rendering="geometricPrecision" transform="matrix(1,0,0,1,335,182)" stroke="rgb(255,204,0)">
      <circle r="15" clip-path="url(#clipPath2)" cx="-210" cy="-60" stroke="none"/>
    </g>
    <g text-rendering="geometricPrecision" stroke-miterlimit="1.45" shape-rendering="geometricPrecision" transform="matrix(1,0,0,1,335,182)" stroke-linecap="butt">
      <circle fill="none" r="15" clip-path="url(#clipPath2)" cx="-210" cy="-60"/>
    </g>
    <g fill="rgb(255,204,0)" text-rendering="geometricPrecision" shape-rendering="geometricPrecision" transform="matrix(1,0,0,1,335,182)" stroke="rgb(255,204,0)">
      <circle r="15" clip-path="url(#clipPath2)" cx="-210" cy="0" stroke="none"/>
    </g>
    <g text-rendering="geometricPrecision" stroke-miterlimit="1.45" shape-rendering="geometricPrecision" transform="matrix(1,0,0,1,335,182)" stroke-linecap="butt">
      <circle fill="none" r="15" clip-path="url(#clipPath2)" cx="-210" cy="0"/>
    </g>
    <g fill="rgb(255,204,0)" text-rendering="geometricPrecision" shape-rendering="geometricPrecision" transform="matrix(1,0,0,1,335,182)" stroke="rgb(255,204,0)">
      <circle r="15" clip-path="url(#clipPath2)" cx="-210" cy="60" stroke="none"/>
    </g>
    <g text-rendering="geometricPrecision" stroke-miterlimit="1.45" shape-rendering="geometricPrecision" transform="matrix(1,0,0,1,335,182)" stroke-linecap="butt">
      <circle fill="none" r="15" clip-path="url(#clipPath2)" cx="-210" cy="60"/>
    </g>
    <g fill="rgb(255,204,0)" text-rendering="geometricPrecision" shape-rendering="geometricPrecision" transform="matrix(1,0,0,1,335,182)" stroke="rgb(255,204,0)">
      <circle r="15" clip-path="url(#clipPath2)" cx="-210" cy="120" stroke="none"/>
    </g>
    <g text-rendering="geometricPrecision" stroke-miterlimit="1.45" shape-rendering="geometricPrecision" transform="matrix(1,0,0,1,335,182)" stroke-linecap="butt">
      <circle fill="none" r="15" clip-path="url(#clipPath2)" cx="-210" cy="120"/>
    </g>
    <g fill="rgb(255,204,0)" text-rendering="geometricPrecision" shape-rendering="geometricPrecision" transform="matrix(1,0,0,1,335,182)" stroke="rgb(255,204,0)">
      <circle r="15" clip-path="url(#clipPath2)" cx="-210" cy="180" stroke="none"/>
    </g>
    <g text-rendering="geometricPrecision" stroke-miterlimit="1.45" shape-rendering="geometricPrecision" transform="matrix(1,0,0,1,335,182)" stroke-linecap="butt">
      <circle fill="none" r="15" clip-path="url(#clipPath2)" cx="-210" cy="180"/>
    </g>
    <g fill="rgb(255,204,0)" text-rendering="geometricPrecision" shape-rendering="geometricPrecision" transform="matrix(1,0,0,1,335,182)" stroke="rgb(255,204,0)">
      <circle r="15" clip-path="url(#clipPath2)" cx="-90" cy="-60" stroke="none"/>
    </g>
    <g text-rendering="geometricPrecision" stroke-miterlimit="1.45" shape-rendering="geometricPrecision" transform="matrix(1,0,0,1,335,182)" stroke-linecap="butt">
      <circle fill="none" r="15" clip-path="url(#clipPath2)" cx="-90" cy="-60"/>
    </g>
    <g fill="rgb(255,204,0)" text-rendering="geometricPrecision" shape-rendering="geometricPrecision" transform="matrix(1,0,0,1,335,182)" stroke="rgb(255,204,0)">
      <circle r="15" clip-path="url(#clipPath2)" cx="-90" cy="0" stroke="none"/>
    </g>
    <g text-rendering="geometricPrecision" stroke-miterlimit="1.45" shape-rendering="geometricPrecision" transform="matrix(1,0,0,1,335,182)" stroke-linecap="butt">
      <circle fill="none" r="15" clip-path="url(#clipPath2)" cx="-90" cy="0"/>
    </g>
    <g fill="rgb(255,204,0)" text-rendering="geometricPrecision" shape-rendering="geometricPrecision" transform="matrix(1,0,0,1,335,182)" stroke="rgb(255,204,0)">
      <circle r="15" clip-path="url(#clipPath2)" cx="-90" cy="60" stroke="none"/>
    </g>
    <g text-rendering="geometricPrecision" stroke-miterlimit="1.45" shape-rendering="geometricPrecision" transform="matrix(1,0,0,1,335,182)" stroke-linecap="butt">
      <circle fill="none" r="15" clip-path="url(#clipPath2)" cx="-90" cy="60"/>
    </g>
    <g fill="rgb(255,204,0)" text-rendering="geometricPrecision" shape-rendering="geometricPrecision" transform="matrix(1,0,0,1,335,182)" stroke="rgb(255,204,0)">
      <circle r="15" clip-path="url(#clipPath2)" cx="-90" cy="120" stroke="none"/>
    </g>
    <g text-rendering="geometricPrecision" stroke-miterlimit="1.45" shape-rendering="geometricPrecision" transform="matrix(1,0,0,1,335,182)" stroke-linecap="butt">
      <circle fill="none" r="15" clip-path="url(#clipPath2)" cx="-90" cy="120"/>
    </g>
    <g fill="rgb(255,204,0)" text-rendering="geometricPrecision" shape-rendering="geometricPrecision" transform="matrix(1,0,0,1,335,182)" stroke="rgb(255,204,0)">
      <circle r="15" clip-path="url(#clipPath2)" cx="30" cy="-60" stroke="none"/>
    </g>
    <g text-rendering="geometricPrecision" stroke-miterlimit="1.45" shape-rendering="geometricPrecision" transform="matrix(1,0,0,1,335,182)" stroke-linecap="butt">
      <circle fill="none" r="15" clip-path="url(#clipPath2)" cx="30" cy="-60"/>
    </g>
    <g fill="rgb(255,204,0)" text-rendering="geometricPrecision" shape-rendering="geometricPrecision" transform="matrix(1,0,0,1,335,182)" stroke="rgb(255,204,0)">
      <circle r="15" clip-path="url(#clipPath2)" cx="30" cy="0" stroke="none"/>
    </g>
    <g text-rendering="geometricPrecision" stroke-miterlimit="1.45" shape-rendering="geometricPrecision" transform="matrix(1,0,0,1,335,182)" stroke-linecap="butt">
      <circle fill="none" r="15" clip-path="url(#clipPath2)" cx="30" cy="0"/>
    </g>
    <g fill="rgb(255,204,0)" text-rendering="geometricPrecision" shape-rendering="geometricPrecision" transform="matrix(1,0,0,1,335,182)" stroke="rgb(255,204,0)">
      <circle r="15" clip-path="url(#clipPath2)" cx="30" cy="60" stroke="none"/>
    </g>
    <g text-rendering="geometricPrecision" stroke-miterlimit="1.45" shape-rendering="geometricPrecision" transform="matrix(1,0,0,1,335,182)" stroke-linecap="butt">
      <circle fill="none" r="15" clip-path="url(#clipPath2)" cx="30" cy="60"/>
    </g>
    <g fill="rgb(255,204,0)" text-rendering="geometricPrecision" shape-rendering="geometricPrecision" transform="matrix(1,0,0,1,335,182)" stroke="rgb(255,204,0)">
      <circle r="15" clip-path="url(#clipPath2)" cx="30" cy="120" stroke="none"/>
    </g>
    <g text-rendering="geometricPrecision" stroke-miterlimit="1.45" shape-rendering="geometricPrecision" transform="matrix(1,0,0,1,335,182)" stroke-linecap="butt">
      <circle fill="none" r="15" clip-path="url(#clipPath2)" cx="30" cy="120"/>
    </g>
    <g fill="rgb(255,204,0)" text-rendering="geometricPrecision" shape-rendering="geometricPrecision" transform="matrix(1,0,0,1,335,182)" stroke="rgb(255,204,0)">
      <circle r="15" clip-path="url(#clipPath2)" cx="120" cy="0" stroke="none"/>
    </g>
    <g text-rendering="geometricPrecision" stroke-miterlimit="1.45" shape-rendering="geometricPrecision" transform="matrix(1,0,0,1,335,182)" stroke-linecap="butt">
      <circle fill="none" r="15" clip-path="url(#clipPath2)" cx="120" cy="0"/>
    </g>
    <g fill="rgb(255,204,0)" text-rendering="geometricPrecision" shape-rendering="geometricPrecision" transform="matrix(1,0,0,1,335,182)" stroke="rgb(255,204,0)">
      <circle r="15" clip-path="url(#clipPath2)" cx="120" cy="60" stroke="none"/>
    </g>
    <g text-rendering="geometricPrecision" stroke-miterlimit="1.45" shape-rendering="geometricPrecision" transform="matrix(1,0,0,1,335,182)" stroke-linecap="butt">
      <circle fill="none" r="15" clip-path="url(#clipPath2)" cx="120" cy="60"/>
    </g>
    <g fill="rgb(255,204,0)" text-rendering="geometricPrecision" shape-rendering="geometricPrecision" transform="matrix(1,0,0,1,335,182)" stroke="rgb(255,204,0)">
      <rect x="-319.5067" width="30" height="76.08" y="-8.04" clip-path="url(#clipPath2)" stroke="none"/>
    </g>
    <g text-rendering="geometricPrecision" stroke-miterlimit="1.45" shape-rendering="geometricPrecision" transform="matrix(1,0,0,1,335,182)" stroke-linecap="butt">
      <rect fill="none" x="-319.5067" width="30" height="76.08" y="-8.04" clip-path="url(#clipPath2)"/>
      <text x="-308.617" xml:space="preserve" y="34.1543" clip-path="url(#clipPath2)" font-family="sans-serif" stroke="none">X</text>
    </g>
    <g fill="rgb(255,204,0)" text-rendering="geometricPrecision" shape-rendering="geometricPrecision" transform="matrix(1,0,0,1,335,182)" stroke="rgb(255,204,0)">
      <rect x="-319.5067" width="30" height="30" y="-75" clip-path="url(#clipPath2)" stroke="none"/>
    </g>
    <g text-rendering="geometricPrecision" stroke-miterlimit="1.45" shape-rendering="geometricPrecision" transform="matrix(1,0,0,1,335,182)" stroke-linecap="butt">
      <rect fill="none" x="-319.5067" width="30" height="30" y="-75" clip-path="url(#clipPath2)"/>
      <text x="-308.0574" xml:space="preserve" y="-55.8457" clip-path="url(#clipPath2)" font-family="sans-serif" stroke="none">y</text>
    </g>
    <g fill="rgb(255,204,0)" text-rendering="geometricPrecision" shape-rendering="geometricPrecision" transform="matrix(1,0,0,1,335,182)" stroke="rgb(255,204,0)">
      <rect x="173.22" width="30" height="30" y="249" clip-path="url(#clipPath2)" stroke="none"/>
    </g>
    <g text-rendering="geometricPrecision" stroke-miterlimit="1.45" shape-rendering="geometricPrecision" transform="matrix(1,0,0,1,335,182)" stroke-linecap="butt">
      <rect fill="none" x="173.22" width="30" height="30" y="249" clip-path="url(#clipPath2)"/>
      <text x="180.6204" xml:space="preserve" y="268.1543" clip-path="url(#clipPath2)" font-family="sans-serif" stroke="none">dE</text>
    </g>
    <g fill="rgb(255,204,0)" text-rendering="geometricPrecision" shape-rendering="geometricPrecision" transform="matrix(1,0,0,1,335,182)" stroke="rgb(255,204,0)">
      <rect x="-85" width="63" height="52" y="238" clip-path="url(#clipPath2)" stroke="none"/>
    </g>
    <g text-rendering="geometricPrecision" stroke-miterlimit="1.45" shape-rendering="geometricPrecision" transform="matrix(1,0,0,1,335,182)" stroke-linecap="butt">
      <rect fill="none" x="-85" width="63" height="52" y="238" clip-path="url(#clipPath2)"/>
      <text x="-75.2295" xml:space="preserve" y="261.1699" clip-path="url(#clipPath2)" font-family="sans-serif" stroke="none">Update</text>
      <text x="-77.8662" xml:space="preserve" y="275.1387" clip-path="url(#clipPath2)" font-family="sans-serif" stroke="none">network</text>
    </g>
    <g fill="rgb(255,204,0)" text-rendering="geometricPrecision" shape-rendering="geometricPrecision" transform="matrix(1,0,0,1,335,182)" stroke="rgb(255,204,0)">
      <rect x="173.22" width="30" height="30" y="15" clip-path="url(#clipPath2)" stroke="none"/>
    </g>
    <g text-rendering="geometricPrecision" stroke-miterlimit="1.45" shape-rendering="geometricPrecision" transform="matrix(1,0,0,1,335,182)" stroke-linecap="butt">
      <rect fill="none" x="173.22" width="30" height="30" y="15" clip-path="url(#clipPath2)"/>
      <text x="184.8772" xml:space="preserve" y="34.1543" clip-path="url(#clipPath2)" font-family="sans-serif" stroke="none">L</text>
      <path fill="none" d="M-196.5836 -113.2918 L-110.5718 -70.2859" clip-path="url(#clipPath2)"/>
      <path d="M-103.4164 -66.7082 L-111.9135 -76.5469 L-111.4662 -70.7331 L-116.3856 -67.6026 Z" clip-path="url(#clipPath2)" stroke="none"/>
      <path fill="none" d="M-195 -60 L-113 -60" clip-path="url(#clipPath2)"/>
      <path d="M-105 -60 L-117 -65 L-114 -60 L-117 -55 Z" clip-path="url(#clipPath2)" stroke="none"/>
      <path fill="none" d="M-196.5836 -6.7082 L-110.5718 -49.7141" clip-path="url(#clipPath2)"/>
      <path d="M-103.4164 -53.2918 L-116.3856 -52.3974 L-111.4662 -49.2669 L-111.9135 -43.4531 Z" clip-path="url(#clipPath2)" stroke="none"/>
      <path fill="none" d="M-199.3934 49.3934 L-106.2635 -43.7365" clip-path="url(#clipPath2)"/>
      <path d="M-100.6066 -49.3934 L-112.6274 -44.4436 L-106.9706 -43.0294 L-105.5564 -37.3726 Z" clip-path="url(#clipPath2)" stroke="none"/>
      <path fill="none" d="M-201.6795 107.5192 L-102.7581 -40.8628" clip-path="url(#clipPath2)"/>
      <path d="M-98.3205 -47.5192 L-109.1372 -40.3081 L-103.3128 -40.0308 L-100.8167 -34.7611 Z" clip-path="url(#clipPath2)" stroke="none"/>
      <path fill="none" d="M-203.2918 166.5836 L-100.2859 -39.4282" clip-path="url(#clipPath2)"/>
      <path d="M-96.7082 -46.5836 L-106.5469 -38.0865 L-100.7331 -38.5337 L-97.6026 -33.6144 Z" clip-path="url(#clipPath2)" stroke="none"/>
      <path fill="none" d="M-199.3934 -109.3934 L-106.2635 -16.2635" clip-path="url(#clipPath2)"/>
      <path d="M-100.6066 -10.6066 L-105.5564 -22.6274 L-106.9706 -16.9706 L-112.6274 -15.5564 Z" clip-path="url(#clipPath2)" stroke="none"/>
      <path fill="none" d="M-196.5836 -53.2918 L-110.5718 -10.2859" clip-path="url(#clipPath2)"/>
      <path d="M-103.4164 -6.7082 L-111.9135 -16.5469 L-111.4662 -10.7331 L-116.3856 -7.6026 Z" clip-path="url(#clipPath2)" stroke="none"/>
      <path fill="none" d="M-195 0 L-113 0" clip-path="url(#clipPath2)"/>
      <path d="M-105 0 L-117 -5 L-114 0 L-117 5 Z" clip-path="url(#clipPath2)" stroke="none"/>
      <path fill="none" d="M-196.5836 53.2918 L-110.5718 10.2859" clip-path="url(#clipPath2)"/>
      <path d="M-103.4164 6.7082 L-116.3856 7.6026 L-111.4662 10.7331 L-111.9135 16.5469 Z" clip-path="url(#clipPath2)" stroke="none"/>
      <path fill="none" d="M-199.3934 109.3934 L-106.2635 16.2635" clip-path="url(#clipPath2)"/>
      <path d="M-100.6066 10.6066 L-112.6274 15.5564 L-106.9706 16.9706 L-105.5564 22.6274 Z" clip-path="url(#clipPath2)" stroke="none"/>
      <path fill="none" d="M-201.6795 167.5192 L-102.7581 19.1372" clip-path="url(#clipPath2)"/>
      <path d="M-98.3205 12.4808 L-109.1372 19.6919 L-103.3128 19.9692 L-100.8167 25.2389 Z" clip-path="url(#clipPath2)" stroke="none"/>
      <path fill="none" d="M-201.6795 -107.5192 L-102.7581 40.8628" clip-path="url(#clipPath2)"/>
      <path d="M-98.3205 47.5192 L-100.8167 34.7611 L-103.3128 40.0308 L-109.1372 40.3081 Z" clip-path="url(#clipPath2)" stroke="none"/>
      <path fill="none" d="M-199.3934 -49.3934 L-106.2635 43.7365" clip-path="url(#clipPath2)"/>
      <path d="M-100.6066 49.3934 L-105.5564 37.3726 L-106.9706 43.0294 L-112.6274 44.4436 Z" clip-path="url(#clipPath2)" stroke="none"/>
      <path fill="none" d="M-196.5836 6.7082 L-110.5718 49.7141" clip-path="url(#clipPath2)"/>
      <path d="M-103.4164 53.2918 L-111.9135 43.4531 L-111.4662 49.2669 L-116.3856 52.3974 Z" clip-path="url(#clipPath2)" stroke="none"/>
      <path fill="none" d="M-195 60 L-113 60" clip-path="url(#clipPath2)"/>
      <path d="M-105 60 L-117 55 L-114 60 L-117 65 Z" clip-path="url(#clipPath2)" stroke="none"/>
      <path fill="none" d="M-196.9612 112.5845 L-111.9732 64.2502" clip-path="url(#clipPath2)"/>
      <path d="M-105.0192 60.2953 L-117.9221 61.8814 L-112.8425 64.7445 L-112.9784 70.5739 Z" clip-path="url(#clipPath2)" stroke="none"/>
      <path fill="none" d="M-199.3934 169.3934 L-106.2635 76.2635" clip-path="url(#clipPath2)"/>
      <path d="M-100.6066 70.6066 L-112.6274 75.5564 L-106.9706 76.9706 L-105.5564 82.6274 Z" clip-path="url(#clipPath2)" stroke="none"/>
      <path fill="none" d="M-203.2918 -106.5836 L-100.2859 99.4282" clip-path="url(#clipPath2)"/>
      <path d="M-96.7082 106.5836 L-97.6026 93.6144 L-100.7331 98.5338 L-106.5469 98.0865 Z" clip-path="url(#clipPath2)" stroke="none"/>
      <path fill="none" d="M-201.6795 -47.5192 L-102.7581 100.8628" clip-path="url(#clipPath2)"/>
      <path d="M-98.3205 107.5192 L-100.8167 94.7611 L-103.3128 100.0308 L-109.1372 100.3081 Z" clip-path="url(#clipPath2)" stroke="none"/>
      <path fill="none" d="M-199.3934 10.6066 L-106.2635 103.7365" clip-path="url(#clipPath2)"/>
      <path d="M-100.6066 109.3934 L-105.5564 97.3726 L-106.9706 103.0294 L-112.6274 104.4436 Z" clip-path="url(#clipPath2)" stroke="none"/>
      <path fill="none" d="M-196.5836 66.7082 L-110.5718 109.7141" clip-path="url(#clipPath2)"/>
      <path d="M-103.4164 113.2918 L-111.9135 103.4531 L-111.4662 109.2669 L-116.3856 112.3974 Z" clip-path="url(#clipPath2)" stroke="none"/>
      <path fill="none" d="M-195 120 L-113 120" clip-path="url(#clipPath2)"/>
      <path d="M-105 120 L-117 115 L-114 120 L-117 125 Z" clip-path="url(#clipPath2)" stroke="none"/>
      <path fill="none" d="M-196.5836 173.2918 L-110.5718 130.2859" clip-path="url(#clipPath2)"/>
      <path d="M-103.4164 126.7082 L-116.3856 127.6026 L-111.4662 130.7331 L-111.9135 136.5469 Z" clip-path="url(#clipPath2)" stroke="none"/>
      <path fill="none" d="M-75 -60 L7 -60" clip-path="url(#clipPath2)"/>
      <path d="M15 -60 L3 -65 L6 -60 L3 -55 Z" clip-path="url(#clipPath2)" stroke="none"/>
      <path fill="none" d="M-76.5836 -6.7082 L9.4282 -49.7141" clip-path="url(#clipPath2)"/>
      <path d="M16.5836 -53.2918 L3.6144 -52.3974 L8.5337 -49.2669 L8.0865 -43.4531 Z" clip-path="url(#clipPath2)" stroke="none"/>
      <path fill="none" d="M-79.3934 49.3934 L13.7365 -43.7365" clip-path="url(#clipPath2)"/>
      <path d="M19.3934 -49.3934 L7.3726 -44.4437 L13.0294 -43.0294 L14.4436 -37.3726 Z" clip-path="url(#clipPath2)" stroke="none"/>
      <path fill="none" d="M-81.6795 107.5192 L17.2419 -40.8628" clip-path="url(#clipPath2)"/>
      <path d="M21.6795 -47.5192 L10.8628 -40.3081 L16.6872 -40.0308 L19.1833 -34.7611 Z" clip-path="url(#clipPath2)" stroke="none"/>
      <path fill="none" d="M-76.5836 -53.2918 L9.4282 -10.2859" clip-path="url(#clipPath2)"/>
      <path d="M16.5836 -6.7082 L8.0865 -16.5469 L8.5337 -10.7331 L3.6144 -7.6026 Z" clip-path="url(#clipPath2)" stroke="none"/>
      <path fill="none" d="M-75 0 L7 0" clip-path="url(#clipPath2)"/>
      <path d="M15 0 L3 -5 L6 0 L3 5 Z" clip-path="url(#clipPath2)" stroke="none"/>
      <path fill="none" d="M-76.5836 53.2918 L9.4282 10.2859" clip-path="url(#clipPath2)"/>
      <path d="M16.5836 6.7082 L3.6144 7.6026 L8.5337 10.7331 L8.0865 16.5469 Z" clip-path="url(#clipPath2)" stroke="none"/>
      <path fill="none" d="M-79.3934 109.3934 L13.7365 16.2635" clip-path="url(#clipPath2)"/>
      <path d="M19.3934 10.6066 L7.3726 15.5563 L13.0294 16.9706 L14.4437 22.6274 Z" clip-path="url(#clipPath2)" stroke="none"/>
      <path fill="none" d="M-79.3934 -49.3934 L13.7365 43.7365" clip-path="url(#clipPath2)"/>
      <path d="M19.3934 49.3934 L14.4436 37.3726 L13.0294 43.0294 L7.3726 44.4437 Z" clip-path="url(#clipPath2)" stroke="none"/>
      <path fill="none" d="M-76.5836 6.7082 L9.4282 49.7141" clip-path="url(#clipPath2)"/>
      <path d="M16.5836 53.2918 L8.0865 43.4531 L8.5337 49.2669 L3.6144 52.3974 Z" clip-path="url(#clipPath2)" stroke="none"/>
      <path fill="none" d="M-75 60 L7 60" clip-path="url(#clipPath2)"/>
      <path d="M15 60 L3 55 L6 60 L3 65 Z" clip-path="url(#clipPath2)" stroke="none"/>
      <path fill="none" d="M-76.5836 113.2918 L9.4282 70.2859" clip-path="url(#clipPath2)"/>
      <path d="M16.5836 66.7082 L3.6144 67.6026 L8.5337 70.7331 L8.0865 76.5469 Z" clip-path="url(#clipPath2)" stroke="none"/>
      <path fill="none" d="M-81.6795 -47.5192 L17.2419 100.8628" clip-path="url(#clipPath2)"/>
      <path d="M21.6795 107.5192 L19.1833 94.7611 L16.6872 100.0308 L10.8628 100.3081 Z" clip-path="url(#clipPath2)" stroke="none"/>
      <path fill="none" d="M-79.3934 10.6066 L13.7365 103.7365" clip-path="url(#clipPath2)"/>
      <path d="M19.3934 109.3934 L14.4436 97.3726 L13.0294 103.0294 L7.3726 104.4436 Z" clip-path="url(#clipPath2)" stroke="none"/>
      <path fill="none" d="M-76.5836 66.7082 L9.4282 109.7141" clip-path="url(#clipPath2)"/>
      <path d="M16.5836 113.2918 L8.0865 103.4531 L8.5337 109.2669 L3.6144 112.3974 Z" clip-path="url(#clipPath2)" stroke="none"/>
      <path fill="none" d="M-75 120 L7 120" clip-path="url(#clipPath2)"/>
      <path d="M15 120 L3 115 L6 120 L3 125 Z" clip-path="url(#clipPath2)" stroke="none"/>
      <path fill="none" d="M42.4808 -51.6795 L100.8628 -12.7581" clip-path="url(#clipPath2)"/>
      <path d="M107.5192 -8.3205 L100.3081 -19.1372 L100.0308 -13.3128 L94.7611 -10.8167 Z" clip-path="url(#clipPath2)" stroke="none"/>
      <path fill="none" d="M45 0 L97 0" clip-path="url(#clipPath2)"/>
      <path d="M105 0 L93 -5 L96 0 L93 5 Z" clip-path="url(#clipPath2)" stroke="none"/>
      <path fill="none" d="M42.4808 51.6795 L100.8628 12.7581" clip-path="url(#clipPath2)"/>
      <path d="M107.5192 8.3205 L94.7611 10.8167 L100.0308 13.3128 L100.3081 19.1372 Z" clip-path="url(#clipPath2)" stroke="none"/>
      <path fill="none" d="M39 108 L106.2 18.4" clip-path="url(#clipPath2)"/>
      <path d="M111 12 L99.8 18.6 L105.6 19.2 L107.8 24.6 Z" clip-path="url(#clipPath2)" stroke="none"/>
      <path fill="none" d="M39 -48 L106.2 41.6" clip-path="url(#clipPath2)"/>
      <path d="M111 48 L107.8 35.4 L105.6 40.8 L99.8 41.4 Z" clip-path="url(#clipPath2)" stroke="none"/>
      <path fill="none" d="M42.4808 8.3205 L100.8628 47.2419" clip-path="url(#clipPath2)"/>
      <path d="M107.5192 51.6795 L100.3082 40.8628 L100.0308 46.6872 L94.7611 49.1833 Z" clip-path="url(#clipPath2)" stroke="none"/>
      <path fill="none" d="M45 60 L97 60" clip-path="url(#clipPath2)"/>
      <path d="M105 60 L93 55 L96 60 L93 65 Z" clip-path="url(#clipPath2)" stroke="none"/>
      <path fill="none" d="M42.4808 111.6795 L100.8628 72.7581" clip-path="url(#clipPath2)"/>
      <path d="M107.5192 68.3205 L94.7611 70.8167 L100.0308 73.3128 L100.3081 79.1372 Z" clip-path="url(#clipPath2)" stroke="none"/>
      <path fill="none" d="M-289.5067 6.1922 L-222.2605 -100.5403" clip-path="url(#clipPath2)"/>
      <path d="M-217.996 -107.3089 L-228.6231 -99.8213 L-222.7935 -99.6942 L-220.1624 -94.4907 Z" clip-path="url(#clipPath2)" stroke="none"/>
      <path fill="none" d="M-289.5067 15.7153 L-226.6557 -44.1385" clip-path="url(#clipPath2)"/>
      <path d="M-220.8624 -49.6556 L-233.0005 -45.0008 L-227.3799 -43.4489 L-226.1042 -37.7592 Z" clip-path="url(#clipPath2)" stroke="none"/>
      <path fill="none" d="M-289.5067 25.2384 L-231.922 6.9589" clip-path="url(#clipPath2)"/>
      <path d="M-224.297 4.5384 L-237.2473 3.4035 L-232.8751 7.2614 L-234.2217 12.9348 Z" clip-path="url(#clipPath2)" stroke="none"/>
      <path fill="none" d="M-289.5067 34.7616 L-231.922 53.0411" clip-path="url(#clipPath2)"/>
      <path d="M-224.297 55.4616 L-234.2217 47.0652 L-232.8751 52.7386 L-237.2473 56.5965 Z" clip-path="url(#clipPath2)" stroke="none"/>
      <path fill="none" d="M-289.5067 44.2847 L-226.6557 104.1385" clip-path="url(#clipPath2)"/>
      <path d="M-220.8624 109.6556 L-226.1042 97.7592 L-227.3799 103.4489 L-233.0005 105.0008 Z" clip-path="url(#clipPath2)" stroke="none"/>
      <path fill="none" d="M-289.5067 53.8078 L-222.2605 160.5403" clip-path="url(#clipPath2)"/>
      <path d="M-217.996 167.3089 L-220.1624 154.4907 L-222.7935 159.6942 L-228.6231 159.8213 Z" clip-path="url(#clipPath2)" stroke="none"/>
    </g>
    <g text-rendering="geometricPrecision" stroke-miterlimit="1.45" shape-rendering="geometricPrecision" transform="matrix(1,0,0,1,335,182)" stroke-linecap="butt">
      <path fill="none" d="M-7 257.75 L-22 264 L-7 270.25 L-9.85 265.5 L173.22 265.5 L173.22 262.5 L-9.85 262.5 L-7 257.75 Z" clip-path="url(#clipPath2)"/>
      <text x="68.8082" xml:space="preserve" y="251.1466" clip-path="url(#clipPath2)" font-family="sans-serif" stroke="none">dError</text>
    </g>
    <g text-rendering="geometricPrecision" stroke-miterlimit="1.45" shape-rendering="geometricPrecision" transform="matrix(1,0,0,1,335,182)" stroke-linecap="butt">
      <path fill="none" d="M-51.2371 208.0226 L-58.0879 222.7579 L-58.0879 222.7579 L-53.2266 220.1021 L-53.2266 220.1021 L-53.9477 237.9394 L-50.9502 238.0606 L-50.2291 220.2233 L-50.2291 220.2233 L-45.5981 223.2628 L-45.5981 223.2628 L-51.2371 208.0226 Z" clip-path="url(#clipPath2)"/>
    </g>
    <g text-rendering="geometricPrecision" stroke-miterlimit="1.45" shape-rendering="geometricPrecision" transform="matrix(1,0,0,1,335,182)" stroke-linecap="butt">
      <path fill="none" d="M133.731 6.0382 L165.8968 20.1833" clip-path="url(#clipPath2)"/>
      <path d="M173.22 23.4037 L164.248 13.9961 L164.9814 19.7807 L160.2225 23.1501 Z" clip-path="url(#clipPath2)" stroke="none"/>
      <text x="153.8618" xml:space="preserve" y="33.3826" clip-path="url(#clipPath2)" font-family="sans-serif" stroke="none">yh</text>
      <path fill="none" d="M133.731 53.9618 L165.8968 39.8167" clip-path="url(#clipPath2)"/>
      <path d="M173.22 36.5963 L160.2225 36.8499 L164.9814 40.2193 L164.248 46.0039 Z" clip-path="url(#clipPath2)" stroke="none"/>
      <path fill="none" d="M-297.9517 -75.0058 L-297.4411 -76.1746 L-288.433 -90.9595 L-277.623 -104.371 L-265.1515 -116.4258 L-251.159 -127.1402 L-235.7859 -136.5308 L-219.1729 -144.614 L-201.4603 -151.4062 L-182.7887 -156.9241 L-163.2986 -161.1841 L-143.1304 -164.2026 L-122.4246 -165.9961 L-101.3218 -166.5811 L-79.9624 -165.9741 L-58.4869 -164.1916 L-37.0358 -161.25 L-15.7497 -157.1658 L5.2311 -151.9556 L25.766 -145.6357 L45.7145 -138.2227 L64.9361 -129.733 L83.2904 -120.1831 L100.6368 -109.5895 L116.8349 -97.9688 L131.7441 -85.3372 L145.224 -71.7114 L157.1341 -57.1078 L167.3339 -41.543 L175.6829 -25.0333 L182.0405 -7.5952 L185.4257 7.104 L185.4358 7.2034" clip-path="url(#clipPath2)"/>
      <path d="M186.7135 15.1007 L189.7327 2.4562 L185.276 6.2163 L179.8611 4.0534 Z" clip-path="url(#clipPath2)" stroke="none"/>
      <text x="189.2579" xml:space="preserve" y="-4.2928" clip-path="url(#clipPath2)" font-family="sans-serif" stroke="none">y</text>
    </g>
    <g text-rendering="geometricPrecision" stroke-miterlimit="1.45" shape-rendering="geometricPrecision" transform="matrix(1,0,0,1,335,182)" stroke-linecap="butt">
      <path fill="none" d="M186.72 45 L186.72 236.85 L181.97 234 L188.22 249 L194.47 234 L189.72 236.85 L189.72 45 Z" clip-path="url(#clipPath2)"/>
      <text x="196.479" xml:space="preserve" y="151.6576" clip-path="url(#clipPath2)" font-family="sans-serif" stroke="none">Error</text>
    </g>
  </g>
</svg>
