<?xml version="1.0" encoding="UTF-8"?><svg xmlns="http://www.w3.org/2000/svg" xmlns:xlink="http://www.w3.org/1999/xlink" fill-opacity="1" color-rendering="auto" color-interpolation="auto" text-rendering="auto" stroke="black" stroke-linecap="square" width="488" stroke-miterlimit="10" shape-rendering="auto" stroke-opacity="1" fill="black" stroke-dasharray="none" font-weight="normal" stroke-width="1" height="321" font-family="'Dialog'" font-style="normal" stroke-linejoin="miter" font-size="12px" stroke-dashoffset="0" image-rendering="auto">
  <!--Generated by ySVG 2.5-->
  <defs id="genericDefs"/>
  <g>
    <defs id="defs1">
      <clipPath clipPathUnits="userSpaceOnUse" id="clipPath1">
        <path d="M0 0 L488 0 L488 321 L0 321 L0 0 Z"/>
      </clipPath>
      <clipPath clipPathUnits="userSpaceOnUse" id="clipPath2">
        <path d="M172 15 L660 15 L660 336 L172 336 L172 15 Z"/>
      </clipPath>
    </defs>
    <g fill="white" text-rendering="geometricPrecision" shape-rendering="geometricPrecision" transform="translate(-172,-15)" stroke="white">
      <rect x="172" width="488" height="321" y="15" clip-path="url(#clipPath2)" stroke="none"/>
    </g>
    <g fill="rgb(255,204,0)" text-rendering="geometricPrecision" shape-rendering="geometricPrecision" transform="matrix(1,0,0,1,-172,-15)" stroke="rgb(255,204,0)">
      <circle r="33" clip-path="url(#clipPath2)" cx="495" cy="199" stroke="none"/>
    </g>
    <g text-rendering="geometricPrecision" stroke-miterlimit="1.45" shape-rendering="geometricPrecision" transform="matrix(1,0,0,1,-172,-15)" stroke-linecap="butt">
      <circle fill="none" r="33" clip-path="url(#clipPath2)" cx="495" cy="199"/>
    </g>
    <g fill="rgb(255,204,0)" text-rendering="geometricPrecision" shape-rendering="geometricPrecision" transform="matrix(1,0,0,1,-172,-15)" stroke="rgb(255,204,0)">
      <rect x="187" y="71" clip-path="url(#clipPath2)" width="30" rx="4" ry="4" height="30" stroke="none"/>
    </g>
    <g text-rendering="geometricPrecision" stroke-miterlimit="1.45" shape-rendering="geometricPrecision" transform="matrix(1,0,0,1,-172,-15)" stroke-linecap="butt">
      <rect x="187" y="71" clip-path="url(#clipPath2)" fill="none" width="30" rx="4" ry="4" height="30"/>
      <text x="194.6318" xml:space="preserve" y="90.1543" clip-path="url(#clipPath2)" font-family="sans-serif" stroke="none">x1</text>
    </g>
    <g fill="rgb(255,204,0)" text-rendering="geometricPrecision" shape-rendering="geometricPrecision" transform="matrix(1,0,0,1,-172,-15)" stroke="rgb(255,204,0)">
      <rect x="187" y="112" clip-path="url(#clipPath2)" width="30" rx="4" ry="4" height="30" stroke="none"/>
    </g>
    <g text-rendering="geometricPrecision" stroke-miterlimit="1.45" shape-rendering="geometricPrecision" transform="matrix(1,0,0,1,-172,-15)" stroke-linecap="butt">
      <rect x="187" y="112" clip-path="url(#clipPath2)" fill="none" width="30" rx="4" ry="4" height="30"/>
      <text x="194.6318" xml:space="preserve" y="131.1543" clip-path="url(#clipPath2)" font-family="sans-serif" stroke="none">x2</text>
    </g>
    <g fill="rgb(255,204,0)" text-rendering="geometricPrecision" shape-rendering="geometricPrecision" transform="matrix(1,0,0,1,-172,-15)" stroke="rgb(255,204,0)">
      <rect x="187" y="153" clip-path="url(#clipPath2)" width="30" rx="4" ry="4" height="30" stroke="none"/>
    </g>
    <g text-rendering="geometricPrecision" stroke-miterlimit="1.45" shape-rendering="geometricPrecision" transform="matrix(1,0,0,1,-172,-15)" stroke-linecap="butt">
      <rect x="187" y="153" clip-path="url(#clipPath2)" fill="none" width="30" rx="4" ry="4" height="30"/>
      <text x="194.6318" xml:space="preserve" y="172.1543" clip-path="url(#clipPath2)" font-family="sans-serif" stroke="none">x3</text>
    </g>
    <g fill="rgb(255,204,0)" text-rendering="geometricPrecision" shape-rendering="geometricPrecision" transform="matrix(1,0,0,1,-172,-15)" stroke="rgb(255,204,0)">
      <rect x="187" y="199" clip-path="url(#clipPath2)" width="30" rx="4" ry="4" height="30" stroke="none"/>
    </g>
    <g text-rendering="geometricPrecision" stroke-miterlimit="1.45" shape-rendering="geometricPrecision" transform="matrix(1,0,0,1,-172,-15)" stroke-linecap="butt">
      <rect x="187" y="199" clip-path="url(#clipPath2)" fill="none" width="30" rx="4" ry="4" height="30"/>
      <text x="194.6318" xml:space="preserve" y="218.1543" clip-path="url(#clipPath2)" font-family="sans-serif" stroke="none">x4</text>
    </g>
    <g fill="rgb(255,204,0)" text-rendering="geometricPrecision" shape-rendering="geometricPrecision" transform="matrix(1,0,0,1,-172,-15)" stroke="rgb(255,204,0)">
      <rect x="187" y="245" clip-path="url(#clipPath2)" width="30" rx="4" ry="4" height="30" stroke="none"/>
    </g>
    <g text-rendering="geometricPrecision" stroke-miterlimit="1.45" shape-rendering="geometricPrecision" transform="matrix(1,0,0,1,-172,-15)" stroke-linecap="butt">
      <rect x="187" y="245" clip-path="url(#clipPath2)" fill="none" width="30" rx="4" ry="4" height="30"/>
      <text x="194.6318" xml:space="preserve" y="264.1543" clip-path="url(#clipPath2)" font-family="sans-serif" stroke="none">x5</text>
    </g>
    <g fill="rgb(255,204,0)" text-rendering="geometricPrecision" shape-rendering="geometricPrecision" transform="matrix(1,0,0,1,-172,-15)" stroke="rgb(255,204,0)">
      <rect x="187" y="291" clip-path="url(#clipPath2)" width="30" rx="4" ry="4" height="30" stroke="none"/>
    </g>
    <g text-rendering="geometricPrecision" stroke-miterlimit="1.45" shape-rendering="geometricPrecision" transform="matrix(1,0,0,1,-172,-15)" stroke-linecap="butt">
      <rect x="187" y="291" clip-path="url(#clipPath2)" fill="none" width="30" rx="4" ry="4" height="30"/>
      <text x="194.6318" xml:space="preserve" y="310.1543" clip-path="url(#clipPath2)" font-family="sans-serif" stroke="none">x6</text>
      <text x="330.7754" xml:space="preserve" y="139.4743" clip-path="url(#clipPath2)" font-family="sans-serif" stroke="none">w1</text>
      <text x="330.7754" xml:space="preserve" y="167.2343" clip-path="url(#clipPath2)" font-family="sans-serif" stroke="none">w2</text>
      <text x="330.7754" xml:space="preserve" y="194.9943" clip-path="url(#clipPath2)" font-family="sans-serif" stroke="none">w3</text>
      <text x="330.7754" xml:space="preserve" y="221.1543" clip-path="url(#clipPath2)" font-family="sans-serif" stroke="none">w4</text>
      <text x="330.7754" xml:space="preserve" y="251.1543" clip-path="url(#clipPath2)" font-family="sans-serif" stroke="none">w5</text>
      <text x="330.7754" xml:space="preserve" y="281.1543" clip-path="url(#clipPath2)" font-family="sans-serif" stroke="none">w6</text>
      <text x="471.4093" font-size="30px" y="209.3857" clip-path="url(#clipPath2)" font-family="sans-serif" stroke="none" xml:space="preserve">Σ</text>
      <text x="486.5771" font-size="50px" y="211.7782" clip-path="url(#clipPath2)" font-family="sans-serif" stroke="none" xml:space="preserve">|</text>
    </g>
    <g fill="rgb(255,204,0)" text-rendering="geometricPrecision" shape-rendering="geometricPrecision" transform="matrix(1,0,0,1,-172,-15)" stroke="rgb(255,204,0)">
      <rect x="614.3668" y="184" clip-path="url(#clipPath2)" width="30" rx="4" ry="4" height="30" stroke="none"/>
    </g>
    <g text-rendering="geometricPrecision" stroke-miterlimit="1.45" shape-rendering="geometricPrecision" transform="matrix(1,0,0,1,-172,-15)" stroke-linecap="butt">
      <rect x="614.3668" y="184" clip-path="url(#clipPath2)" fill="none" width="30" rx="4" ry="4" height="30"/>
      <text x="625.816" xml:space="preserve" y="203.1543" clip-path="url(#clipPath2)" font-family="sans-serif" stroke="none">y</text>
    </g>
    <g fill="rgb(255,204,0)" text-rendering="geometricPrecision" shape-rendering="geometricPrecision" transform="matrix(1,0,0,1,-172,-15)" stroke="rgb(255,204,0)">
      <rect x="187" y="30" clip-path="url(#clipPath2)" width="30" rx="4" ry="4" height="30" stroke="none"/>
    </g>
    <g text-rendering="geometricPrecision" stroke-miterlimit="1.45" shape-rendering="geometricPrecision" transform="matrix(1,0,0,1,-172,-15)" stroke-linecap="butt">
      <rect x="187" y="30" clip-path="url(#clipPath2)" fill="none" width="30" rx="4" ry="4" height="30"/>
      <text x="198.1914" xml:space="preserve" y="49.1543" clip-path="url(#clipPath2)" font-family="sans-serif" stroke="none">b</text>
      <path fill="none" d="M217.0055 91.3823 L324.5172 129.9458" clip-path="url(#clipPath2)"/>
      <path fill="none" d="M354.4957 141.461 L457.0583 183.4622" clip-path="url(#clipPath2)"/>
      <path d="M464.4615 186.494 L455.2515 177.3193 L456.1328 183.0832 L451.4618 186.5733 Z" clip-path="url(#clipPath2)" stroke="none"/>
      <path fill="none" d="M217.0055 130.9374 L324.5172 159.1485" clip-path="url(#clipPath2)"/>
      <path fill="none" d="M354.4957 166.544 L455.0519 189.7721" clip-path="url(#clipPath2)"/>
      <path d="M462.8467 191.5727 L452.2799 184.0001 L454.0776 189.5471 L450.0292 193.7436 Z" clip-path="url(#clipPath2)" stroke="none"/>
      <path fill="none" d="M217.0055 170.4926 L324.5172 188.3512" clip-path="url(#clipPath2)"/>
      <path fill="none" d="M354.4957 191.6269 L454.0563 196.8514" clip-path="url(#clipPath2)"/>
      <path d="M462.0453 197.2707 L450.3239 191.6487 L453.0577 196.799 L449.7998 201.6349 Z" clip-path="url(#clipPath2)" stroke="none"/>
      <path fill="none" d="M217.0055 214.3274 L324.5172 216.6731" clip-path="url(#clipPath2)"/>
      <path fill="none" d="M354.4957 215.2642 L454.2719 203.7145" clip-path="url(#clipPath2)"/>
      <path d="M462.2189 202.7946 L449.7235 199.2076 L453.2786 203.8295 L450.8734 209.1413 Z" clip-path="url(#clipPath2)" stroke="none"/>
      <path fill="none" d="M217.0055 258.5813 L324.5172 248.4166" clip-path="url(#clipPath2)"/>
      <path fill="none" d="M354.4957 242.3711 L455.824 211.0929" clip-path="url(#clipPath2)"/>
      <path d="M463.4681 208.7333 L450.5272 207.4952 L454.8685 211.3879 L453.4767 217.0503 Z" clip-path="url(#clipPath2)" stroke="none"/>
      <path fill="none" d="M217.0055 302.8352 L324.5172 280.16" clip-path="url(#clipPath2)"/>
      <path fill="none" d="M354.4957 269.478 L458.3521 217.3829" clip-path="url(#clipPath2)"/>
      <path d="M465.5029 213.796 L452.5349 214.7071 L457.4582 217.8312 L457.0185 223.6456 Z" clip-path="url(#clipPath2)" stroke="none"/>
    </g>
    <g text-rendering="geometricPrecision" stroke-miterlimit="1.45" shape-rendering="geometricPrecision" transform="matrix(1,0,0,1,-172,-15)" stroke-linecap="butt">
      <path fill="none" d="M527.9872 199 L603.3678 199" clip-path="url(#clipPath2)"/>
      <path d="M614.3678 199 L602.3678 193 L602.3678 205 Z" clip-path="url(#clipPath2)" stroke="none"/>
    </g>
    <g text-rendering="geometricPrecision" stroke-miterlimit="1.45" shape-rendering="geometricPrecision" transform="matrix(1,0,0,1,-172,-15)" stroke-linecap="butt">
      <path fill="none" d="M499.1947 209.8013 L502.8162 209.6231 L506.5854 207.9058 L509.1396 204.7163 L510.4786 200.0548 L510.8037 197.6558 L512.1294 192.9905 L514.6436 189.7898 L518.3461 188.0537 L521.6705 187.8691" clip-path="url(#clipPath2)"/>
    </g>
    <g text-rendering="geometricPrecision" stroke-miterlimit="1.45" shape-rendering="geometricPrecision" transform="matrix(1,0,0,1,-172,-15)" stroke-linecap="butt">
      <path fill="none" d="M216.9862 52.8767 L456.0521 178.5291" clip-path="url(#clipPath2)"/>
      <path d="M465.789 183.6468 L457.9583 172.7527 L452.3754 183.3749 Z" clip-path="url(#clipPath2)" stroke="none"/>
    </g>
  </g>
</svg>
