<?xml version="1.0" encoding="UTF-8"?><svg xmlns="http://www.w3.org/2000/svg" xmlns:xlink="http://www.w3.org/1999/xlink" fill-opacity="1" color-rendering="auto" color-interpolation="auto" text-rendering="auto" stroke="black" stroke-linecap="square" width="983" stroke-miterlimit="10" shape-rendering="auto" stroke-opacity="1" fill="black" stroke-dasharray="none" font-weight="normal" stroke-width="1" height="428" font-family="'Dialog'" font-style="normal" stroke-linejoin="miter" font-size="12px" stroke-dashoffset="0" image-rendering="auto">
  <!--Generated by ySVG 2.5-->
  <defs id="genericDefs"/>
  <g>
    <defs id="defs1">
      <clipPath clipPathUnits="userSpaceOnUse" id="clipPath1">
        <path d="M0 0 L983 0 L983 428 L0 428 L0 0 Z"/>
      </clipPath>
      <clipPath clipPathUnits="userSpaceOnUse" id="clipPath2">
        <path d="M294 -89 L1277 -89 L1277 339 L294 339 L294 -89 Z"/>
      </clipPath>
    </defs>
    <g fill="white" text-rendering="geometricPrecision" shape-rendering="geometricPrecision" transform="translate(-294,89)" stroke="white">
      <rect x="294" width="983" height="428" y="-89" clip-path="url(#clipPath2)" stroke="none"/>
    </g>
    <g transform="matrix(1,0,0,1,-294,89)" fill-opacity="0.4078" fill="rgb(204,204,204)" text-rendering="geometricPrecision" shape-rendering="geometricPrecision" stroke="rgb(204,204,204)" stroke-opacity="0.4078">
      <rect x="641.04" width="264.4" height="279.5233" y="-15.6148" clip-path="url(#clipPath2)" stroke="none"/>
    </g>
    <g text-rendering="geometricPrecision" stroke-miterlimit="1.45" shape-rendering="geometricPrecision" transform="matrix(1,0,0,1,-294,89)" stroke-linecap="butt">
      <rect fill="none" x="641.04" width="264.4" height="279.5233" y="-15.6148" clip-path="url(#clipPath2)"/>
    </g>
    <g transform="matrix(1,0,0,1,-294,89)" fill-opacity="0.4078" fill="rgb(204,204,204)" text-rendering="geometricPrecision" shape-rendering="geometricPrecision" stroke="rgb(204,204,204)" stroke-opacity="0.4078">
      <rect x="358.04" width="264.4" height="279.5233" y="-15.2062" clip-path="url(#clipPath2)" stroke="none"/>
    </g>
    <g text-rendering="geometricPrecision" stroke-miterlimit="1.45" shape-rendering="geometricPrecision" transform="matrix(1,0,0,1,-294,89)" stroke-linecap="butt">
      <rect fill="none" x="358.04" width="264.4" height="279.5233" y="-15.2062" clip-path="url(#clipPath2)"/>
    </g>
    <g fill="rgb(255,204,0)" text-rendering="geometricPrecision" shape-rendering="geometricPrecision" transform="matrix(1,0,0,1,-294,89)" stroke="rgb(255,204,0)">
      <circle r="22.5" clip-path="url(#clipPath2)" cx="495" cy="188.5" stroke="none"/>
    </g>
    <g text-rendering="geometricPrecision" stroke-miterlimit="1.45" shape-rendering="geometricPrecision" transform="matrix(1,0,0,1,-294,89)" stroke-linecap="butt">
      <circle fill="none" r="22.5" clip-path="url(#clipPath2)" cx="495" cy="188.5"/>
      <text x="484.374" xml:space="preserve" y="192.6543" clip-path="url(#clipPath2)" font-family="sans-serif" stroke="none">g_1</text>
    </g>
    <g fill="rgb(153,204,0)" text-rendering="geometricPrecision" shape-rendering="geometricPrecision" transform="matrix(1,0,0,1,-294,89)" stroke="rgb(153,204,0)">
      <rect x="480" y="293.9086" clip-path="url(#clipPath2)" width="30" rx="4" ry="4" height="30" stroke="none"/>
    </g>
    <g text-rendering="geometricPrecision" stroke-miterlimit="1.45" shape-rendering="geometricPrecision" transform="matrix(1,0,0,1,-294,89)" stroke-linecap="butt">
      <rect x="480" y="293.9086" clip-path="url(#clipPath2)" fill="none" width="30" rx="4" ry="4" height="30"/>
      <text x="484.6318" xml:space="preserve" y="313.0629" clip-path="url(#clipPath2)" font-family="sans-serif" stroke="none">x_1</text>
      <text x="424.5286" xml:space="preserve" y="193.0629" clip-path="url(#clipPath2)" font-family="sans-serif" stroke="none">wa_0</text>
      <text x="479.7246" xml:space="preserve" y="253.0629" clip-path="url(#clipPath2)" font-family="sans-serif" stroke="none">wx_1</text>
    </g>
    <g fill="rgb(255,204,0)" text-rendering="geometricPrecision" shape-rendering="geometricPrecision" transform="matrix(1,0,0,1,-294,89)" stroke="rgb(255,204,0)">
      <rect x="379.84" y="117.1086" clip-path="url(#clipPath2)" width="30" rx="4" ry="4" height="30" stroke="none"/>
    </g>
    <g text-rendering="geometricPrecision" stroke-miterlimit="1.45" shape-rendering="geometricPrecision" transform="matrix(1,0,0,1,-294,89)" stroke-linecap="butt">
      <rect x="379.84" y="117.1086" clip-path="url(#clipPath2)" fill="none" width="30" rx="4" ry="4" height="30"/>
      <text x="380.5373" xml:space="preserve" y="136.2629" clip-path="url(#clipPath2)" font-family="sans-serif" stroke="none">ba_1</text>
    </g>
    <g fill="rgb(255,204,0)" text-rendering="geometricPrecision" shape-rendering="geometricPrecision" transform="matrix(1,0,0,1,-294,89)" stroke="rgb(255,204,0)">
      <circle r="22.5" clip-path="url(#clipPath2)" cx="557.4" cy="68.9286" stroke="none"/>
    </g>
    <g text-rendering="geometricPrecision" stroke-miterlimit="1.45" shape-rendering="geometricPrecision" transform="matrix(1,0,0,1,-294,89)" stroke-linecap="butt">
      <circle fill="none" r="22.5" clip-path="url(#clipPath2)" cx="557.4" cy="68.9286"/>
      <text x="546.774" xml:space="preserve" y="73.0829" clip-path="url(#clipPath2)" font-family="sans-serif" stroke="none">g_2</text>
      <text x="542.1246" xml:space="preserve" y="133.0629" clip-path="url(#clipPath2)" font-family="sans-serif" stroke="none">wy_1</text>
    </g>
    <g fill="rgb(0,204,255)" text-rendering="geometricPrecision" shape-rendering="geometricPrecision" transform="matrix(1,0,0,1,-294,89)" stroke="rgb(0,204,255)">
      <rect x="542.4" y="-73.9314" clip-path="url(#clipPath2)" width="30" rx="4" ry="4" height="30" stroke="none"/>
    </g>
    <g text-rendering="geometricPrecision" stroke-miterlimit="1.45" shape-rendering="geometricPrecision" transform="matrix(1,0,0,1,-294,89)" stroke-linecap="butt">
      <rect x="542.4" y="-73.9314" clip-path="url(#clipPath2)" fill="none" width="30" rx="4" ry="4" height="30"/>
      <text x="547.0319" xml:space="preserve" y="-54.7771" clip-path="url(#clipPath2)" font-family="sans-serif" stroke="none">y_1</text>
    </g>
    <g fill="rgb(255,204,0)" text-rendering="geometricPrecision" shape-rendering="geometricPrecision" transform="matrix(1,0,0,1,-294,89)" stroke="rgb(255,204,0)">
      <rect x="442.24" y="0.8086" clip-path="url(#clipPath2)" width="30" rx="4" ry="4" height="30" stroke="none"/>
    </g>
    <g text-rendering="geometricPrecision" stroke-miterlimit="1.45" shape-rendering="geometricPrecision" transform="matrix(1,0,0,1,-294,89)" stroke-linecap="butt">
      <rect x="442.24" y="0.8086" clip-path="url(#clipPath2)" fill="none" width="30" rx="4" ry="4" height="30"/>
      <text x="443.0632" xml:space="preserve" y="19.9629" clip-path="url(#clipPath2)" font-family="sans-serif" stroke="none">by_1</text>
    </g>
    <g fill="rgb(255,204,0)" text-rendering="geometricPrecision" shape-rendering="geometricPrecision" transform="matrix(1,0,0,1,-294,89)" stroke="rgb(255,204,0)">
      <circle r="22.5" clip-path="url(#clipPath2)" cx="775.08" cy="188.9086" stroke="none"/>
    </g>
    <g text-rendering="geometricPrecision" stroke-miterlimit="1.45" shape-rendering="geometricPrecision" transform="matrix(1,0,0,1,-294,89)" stroke-linecap="butt">
      <circle fill="none" r="22.5" clip-path="url(#clipPath2)" cx="775.08" cy="188.9086"/>
      <text x="764.454" xml:space="preserve" y="193.0629" clip-path="url(#clipPath2)" font-family="sans-serif" stroke="none">g_1</text>
    </g>
    <g fill="rgb(153,204,0)" text-rendering="geometricPrecision" shape-rendering="geometricPrecision" transform="matrix(1,0,0,1,-294,89)" stroke="rgb(153,204,0)">
      <rect x="760.08" y="293.9086" clip-path="url(#clipPath2)" width="30" rx="4" ry="4" height="30" stroke="none"/>
    </g>
    <g text-rendering="geometricPrecision" stroke-miterlimit="1.45" shape-rendering="geometricPrecision" transform="matrix(1,0,0,1,-294,89)" stroke-linecap="butt">
      <rect x="760.08" y="293.9086" clip-path="url(#clipPath2)" fill="none" width="30" rx="4" ry="4" height="30"/>
      <text x="764.7119" xml:space="preserve" y="313.0629" clip-path="url(#clipPath2)" font-family="sans-serif" stroke="none">x_2</text>
      <text x="684.8386" xml:space="preserve" y="193.0629" clip-path="url(#clipPath2)" font-family="sans-serif" stroke="none">wa_1</text>
      <text x="759.8046" xml:space="preserve" y="253.4715" clip-path="url(#clipPath2)" font-family="sans-serif" stroke="none">wx_2</text>
    </g>
    <g fill="rgb(255,204,0)" text-rendering="geometricPrecision" shape-rendering="geometricPrecision" transform="matrix(1,0,0,1,-294,89)" stroke="rgb(255,204,0)">
      <rect x="659.92" y="117.5172" clip-path="url(#clipPath2)" width="30" rx="4" ry="4" height="30" stroke="none"/>
    </g>
    <g text-rendering="geometricPrecision" stroke-miterlimit="1.45" shape-rendering="geometricPrecision" transform="matrix(1,0,0,1,-294,89)" stroke-linecap="butt">
      <rect x="659.92" y="117.5172" clip-path="url(#clipPath2)" fill="none" width="30" rx="4" ry="4" height="30"/>
      <text x="660.6172" xml:space="preserve" y="136.6715" clip-path="url(#clipPath2)" font-family="sans-serif" stroke="none">ba_2</text>
    </g>
    <g fill="rgb(255,204,0)" text-rendering="geometricPrecision" shape-rendering="geometricPrecision" transform="matrix(1,0,0,1,-294,89)" stroke="rgb(255,204,0)">
      <circle r="22.5" clip-path="url(#clipPath2)" cx="829.48" cy="61.4286" stroke="none"/>
    </g>
    <g text-rendering="geometricPrecision" stroke-miterlimit="1.45" shape-rendering="geometricPrecision" transform="matrix(1,0,0,1,-294,89)" stroke-linecap="butt">
      <circle fill="none" r="22.5" clip-path="url(#clipPath2)" cx="829.48" cy="61.4286"/>
      <text x="818.854" xml:space="preserve" y="65.5829" clip-path="url(#clipPath2)" font-family="sans-serif" stroke="none">g_2</text>
      <text x="814.2046" xml:space="preserve" y="133.2772" clip-path="url(#clipPath2)" font-family="sans-serif" stroke="none">wy_2</text>
    </g>
    <g fill="rgb(0,204,255)" text-rendering="geometricPrecision" shape-rendering="geometricPrecision" transform="matrix(1,0,0,1,-294,89)" stroke="rgb(0,204,255)">
      <rect x="814.48" y="-73.9314" clip-path="url(#clipPath2)" width="30" rx="4" ry="4" height="30" stroke="none"/>
    </g>
    <g text-rendering="geometricPrecision" stroke-miterlimit="1.45" shape-rendering="geometricPrecision" transform="matrix(1,0,0,1,-294,89)" stroke-linecap="butt">
      <rect x="814.48" y="-73.9314" clip-path="url(#clipPath2)" fill="none" width="30" rx="4" ry="4" height="30"/>
      <text x="819.1118" xml:space="preserve" y="-54.7771" clip-path="url(#clipPath2)" font-family="sans-serif" stroke="none">y_2</text>
    </g>
    <g fill="rgb(255,204,0)" text-rendering="geometricPrecision" shape-rendering="geometricPrecision" transform="matrix(1,0,0,1,-294,89)" stroke="rgb(255,204,0)">
      <rect x="714.32" y="-7.1" clip-path="url(#clipPath2)" width="30" rx="4" ry="4" height="30" stroke="none"/>
    </g>
    <g text-rendering="geometricPrecision" stroke-miterlimit="1.45" shape-rendering="geometricPrecision" transform="matrix(1,0,0,1,-294,89)" stroke-linecap="butt">
      <rect x="714.32" y="-7.1" clip-path="url(#clipPath2)" fill="none" width="30" rx="4" ry="4" height="30"/>
      <text x="715.1432" xml:space="preserve" y="12.0543" clip-path="url(#clipPath2)" font-family="sans-serif" stroke="none">by_2</text>
    </g>
    <g transform="matrix(1,0,0,1,-294,89)" fill-opacity="0.4078" fill="rgb(204,204,204)" text-rendering="geometricPrecision" shape-rendering="geometricPrecision" stroke="rgb(204,204,204)" stroke-opacity="0.4078">
      <rect x="924.04" width="264.4" height="279.5233" y="-15.6148" clip-path="url(#clipPath2)" stroke="none"/>
    </g>
    <g text-rendering="geometricPrecision" stroke-miterlimit="1.45" shape-rendering="geometricPrecision" transform="matrix(1,0,0,1,-294,89)" stroke-linecap="butt">
      <rect fill="none" x="924.04" width="264.4" height="279.5233" y="-15.6148" clip-path="url(#clipPath2)"/>
    </g>
    <g fill="rgb(255,204,0)" text-rendering="geometricPrecision" shape-rendering="geometricPrecision" transform="matrix(1,0,0,1,-294,89)" stroke="rgb(255,204,0)">
      <circle r="22.5" clip-path="url(#clipPath2)" cx="1058.08" cy="188.9086" stroke="none"/>
    </g>
    <g text-rendering="geometricPrecision" stroke-miterlimit="1.45" shape-rendering="geometricPrecision" transform="matrix(1,0,0,1,-294,89)" stroke-linecap="butt">
      <circle fill="none" r="22.5" clip-path="url(#clipPath2)" cx="1058.08" cy="188.9086"/>
      <text x="1047.454" xml:space="preserve" y="193.0629" clip-path="url(#clipPath2)" font-family="sans-serif" stroke="none">g_1</text>
    </g>
    <g fill="rgb(153,204,0)" text-rendering="geometricPrecision" shape-rendering="geometricPrecision" transform="matrix(1,0,0,1,-294,89)" stroke="rgb(153,204,0)">
      <rect x="1043.08" y="293.9086" clip-path="url(#clipPath2)" width="30" rx="4" ry="4" height="30" stroke="none"/>
    </g>
    <g text-rendering="geometricPrecision" stroke-miterlimit="1.45" shape-rendering="geometricPrecision" transform="matrix(1,0,0,1,-294,89)" stroke-linecap="butt">
      <rect x="1043.08" y="293.9086" clip-path="url(#clipPath2)" fill="none" width="30" rx="4" ry="4" height="30"/>
      <text x="1047.7118" xml:space="preserve" y="313.0629" clip-path="url(#clipPath2)" font-family="sans-serif" stroke="none">x_3</text>
      <text x="955.046" xml:space="preserve" y="193.0629" clip-path="url(#clipPath2)" font-family="sans-serif" stroke="none">wa_2</text>
      <text x="1042.8046" xml:space="preserve" y="253.4715" clip-path="url(#clipPath2)" font-family="sans-serif" stroke="none">wx_3</text>
    </g>
    <g fill="rgb(255,204,0)" text-rendering="geometricPrecision" shape-rendering="geometricPrecision" transform="matrix(1,0,0,1,-294,89)" stroke="rgb(255,204,0)">
      <rect x="942.92" y="117.5172" clip-path="url(#clipPath2)" width="30" rx="4" ry="4" height="30" stroke="none"/>
    </g>
    <g text-rendering="geometricPrecision" stroke-miterlimit="1.45" shape-rendering="geometricPrecision" transform="matrix(1,0,0,1,-294,89)" stroke-linecap="butt">
      <rect x="942.92" y="117.5172" clip-path="url(#clipPath2)" fill="none" width="30" rx="4" ry="4" height="30"/>
      <text x="943.6172" xml:space="preserve" y="136.6715" clip-path="url(#clipPath2)" font-family="sans-serif" stroke="none">ba_3</text>
    </g>
    <g fill="rgb(255,204,0)" text-rendering="geometricPrecision" shape-rendering="geometricPrecision" transform="matrix(1,0,0,1,-294,89)" stroke="rgb(255,204,0)">
      <circle r="22.5" clip-path="url(#clipPath2)" cx="1112.48" cy="61.4286" stroke="none"/>
    </g>
    <g text-rendering="geometricPrecision" stroke-miterlimit="1.45" shape-rendering="geometricPrecision" transform="matrix(1,0,0,1,-294,89)" stroke-linecap="butt">
      <circle fill="none" r="22.5" clip-path="url(#clipPath2)" cx="1112.48" cy="61.4286"/>
      <text x="1101.854" xml:space="preserve" y="65.5829" clip-path="url(#clipPath2)" font-family="sans-serif" stroke="none">g_2</text>
      <text x="1097.2046" xml:space="preserve" y="133.2772" clip-path="url(#clipPath2)" font-family="sans-serif" stroke="none">wy_3</text>
    </g>
    <g fill="rgb(0,204,255)" text-rendering="geometricPrecision" shape-rendering="geometricPrecision" transform="matrix(1,0,0,1,-294,89)" stroke="rgb(0,204,255)">
      <rect x="1097.48" y="-73.9314" clip-path="url(#clipPath2)" width="30" rx="4" ry="4" height="30" stroke="none"/>
    </g>
    <g text-rendering="geometricPrecision" stroke-miterlimit="1.45" shape-rendering="geometricPrecision" transform="matrix(1,0,0,1,-294,89)" stroke-linecap="butt">
      <rect x="1097.48" y="-73.9314" clip-path="url(#clipPath2)" fill="none" width="30" rx="4" ry="4" height="30"/>
      <text x="1102.1118" xml:space="preserve" y="-54.7771" clip-path="url(#clipPath2)" font-family="sans-serif" stroke="none">y_3</text>
    </g>
    <g fill="rgb(255,204,0)" text-rendering="geometricPrecision" shape-rendering="geometricPrecision" transform="matrix(1,0,0,1,-294,89)" stroke="rgb(255,204,0)">
      <rect x="997.32" y="-7.1" clip-path="url(#clipPath2)" width="30" rx="4" ry="4" height="30" stroke="none"/>
    </g>
    <g text-rendering="geometricPrecision" stroke-miterlimit="1.45" shape-rendering="geometricPrecision" transform="matrix(1,0,0,1,-294,89)" stroke-linecap="butt">
      <rect x="997.32" y="-7.1" clip-path="url(#clipPath2)" fill="none" width="30" rx="4" ry="4" height="30"/>
      <text x="998.1432" xml:space="preserve" y="12.0543" clip-path="url(#clipPath2)" font-family="sans-serif" stroke="none">by_3</text>
      <path fill="none" d="M339.412 188.553 L424.9603 188.8556" clip-path="url(#clipPath2)"/>
      <text x="368.9633" xml:space="preserve" y="180.3911" clip-path="url(#clipPath2)" font-family="sans-serif" stroke="none">a_0</text>
      <path fill="none" d="M454.9075 188.7975 L464.5009 188.7263" clip-path="url(#clipPath2)"/>
      <path d="M472.5006 188.6669 L460.4639 183.7561 L463.5009 188.7337 L460.5381 193.7558 Z" clip-path="url(#clipPath2)" stroke="none"/>
      <path fill="none" d="M495 293.8793 L495 263.8842" clip-path="url(#clipPath2)"/>
      <path fill="none" d="M495 233.8949 L495 219" clip-path="url(#clipPath2)"/>
      <path d="M495 211 L490 223 L495 220 L500 223 Z" clip-path="url(#clipPath2)" stroke="none"/>
      <path fill="none" d="M409.8298 140.548 L468.4228 173.5367" clip-path="url(#clipPath2)"/>
      <path d="M475.3939 177.4615 L467.3903 167.2173 L467.5514 173.0461 L462.4843 175.9312 Z" clip-path="url(#clipPath2)" stroke="none"/>
      <path fill="none" d="M517.5 188.5 L557.4 188.5 L557.4 165.4389 L557.4 151.9274" clip-path="url(#clipPath2)"/>
      <path d="M557.4 143.9274 L552.4 155.9274 L557.4 152.9274 L562.4 155.9274 Z" clip-path="url(#clipPath2)" stroke="none"/>
      <path fill="none" d="M557.4 113.8843 L557.4 99.4286" clip-path="url(#clipPath2)"/>
      <path d="M557.4 91.4286 L552.4 103.4286 L557.4 100.4286 L562.4 103.4286 Z" clip-path="url(#clipPath2)" stroke="none"/>
      <path fill="none" d="M557.4 46.4286 L557.4 -35.9351" clip-path="url(#clipPath2)"/>
      <path d="M557.4 -43.9351 L552.4 -31.9351 L557.4 -34.9351 L562.4 -31.9351 Z" clip-path="url(#clipPath2)" stroke="none"/>
      <path fill="none" d="M472.2298 23.7584 L530.455 54.6382" clip-path="url(#clipPath2)"/>
      <path d="M537.5225 58.3865 L529.2639 48.3469 L529.5715 54.1697 L524.5785 57.1813 Z" clip-path="url(#clipPath2)" stroke="none"/>
      <path fill="none" d="M517.4999 188.5448 L677.205 188.8627" clip-path="url(#clipPath2)"/>
      <path d="M685.205 188.8786 L673.215 183.8548 L676.205 188.8607 L673.1951 193.8548 Z" clip-path="url(#clipPath2)" stroke="none"/>
      <text x="568.9036" xml:space="preserve" y="182.0615" clip-path="url(#clipPath2)" font-family="sans-serif" stroke="none">a_1</text>
      <path fill="none" d="M715.2592 188.9086 L744.58 188.9086" clip-path="url(#clipPath2)"/>
      <path d="M752.58 188.9086 L740.58 183.9086 L743.58 188.9086 L740.58 193.9086 Z" clip-path="url(#clipPath2)" stroke="none"/>
      <path fill="none" d="M775.08 293.9234 L775.08 264.3456" clip-path="url(#clipPath2)"/>
      <path fill="none" d="M775.08 234.3035 L775.08 219.4086" clip-path="url(#clipPath2)"/>
      <path d="M775.08 211.4086 L770.08 223.4086 L775.08 220.4086 L780.08 223.4086 Z" clip-path="url(#clipPath2)" stroke="none"/>
      <path fill="none" d="M689.9098 140.9566 L748.5028 173.9453" clip-path="url(#clipPath2)"/>
      <path d="M755.4739 177.8701 L747.4703 167.6259 L747.6314 173.4547 L742.5643 176.3398 Z" clip-path="url(#clipPath2)" stroke="none"/>
      <path fill="none" d="M797.58 188.9086 L829.48 188.9086 L829.48 152.0985" clip-path="url(#clipPath2)"/>
      <path d="M829.48 144.0985 L824.48 156.0985 L829.48 153.0985 L834.48 156.0985 Z" clip-path="url(#clipPath2)" stroke="none"/>
      <path fill="none" d="M829.48 114.1495 L829.48 91.9286" clip-path="url(#clipPath2)"/>
      <path d="M829.48 83.9286 L824.48 95.9286 L829.48 92.9286 L834.48 95.9286 Z" clip-path="url(#clipPath2)" stroke="none"/>
      <path fill="none" d="M829.48 38.9286 L829.48 -35.9753" clip-path="url(#clipPath2)"/>
      <path d="M829.48 -43.9753 L824.48 -31.9753 L829.48 -34.9753 L834.48 -31.9753 Z" clip-path="url(#clipPath2)" stroke="none"/>
      <path fill="none" d="M744.3098 15.911 L802.5805 47.0527" clip-path="url(#clipPath2)"/>
      <path d="M809.6361 50.8234 L801.4094 40.7575 L801.6985 46.5813 L796.696 49.577 Z" clip-path="url(#clipPath2)" stroke="none"/>
      <path fill="none" d="M797.58 188.9086 L940.8392 188.9086" clip-path="url(#clipPath2)"/>
      <path d="M948.8392 188.9086 L936.8392 183.9086 L939.8392 188.9086 L936.8392 193.9086 Z" clip-path="url(#clipPath2)" stroke="none"/>
      <text x="850.705" xml:space="preserve" y="181.3551" clip-path="url(#clipPath2)" font-family="sans-serif" stroke="none">a_2</text>
      <path fill="none" d="M985.4664 188.9086 L1027.58 188.9086" clip-path="url(#clipPath2)"/>
      <path d="M1035.58 188.9086 L1023.58 183.9086 L1026.58 188.9086 L1023.58 193.9086 Z" clip-path="url(#clipPath2)" stroke="none"/>
      <path fill="none" d="M1058.08 293.9234 L1058.08 264.3456" clip-path="url(#clipPath2)"/>
      <path fill="none" d="M1058.08 234.3035 L1058.08 219.4086" clip-path="url(#clipPath2)"/>
      <path d="M1058.08 211.4086 L1053.08 223.4086 L1058.08 220.4086 L1063.08 223.4086 Z" clip-path="url(#clipPath2)" stroke="none"/>
      <path fill="none" d="M972.9098 140.9566 L1031.5028 173.9453" clip-path="url(#clipPath2)"/>
      <path d="M1038.4739 177.8701 L1030.4702 167.6259 L1030.6315 173.4547 L1025.5642 176.3398 Z" clip-path="url(#clipPath2)" stroke="none"/>
      <path fill="none" d="M1080.58 188.9086 L1112.48 188.9086 L1112.48 152.0985" clip-path="url(#clipPath2)"/>
      <path d="M1112.48 144.0985 L1107.48 156.0985 L1112.48 153.0985 L1117.48 156.0985 Z" clip-path="url(#clipPath2)" stroke="none"/>
      <path fill="none" d="M1112.48 114.1495 L1112.48 91.9286" clip-path="url(#clipPath2)"/>
      <path d="M1112.48 83.9286 L1107.48 95.9286 L1112.48 92.9286 L1117.48 95.9286 Z" clip-path="url(#clipPath2)" stroke="none"/>
      <path fill="none" d="M1112.48 38.9286 L1112.48 -35.9753" clip-path="url(#clipPath2)"/>
      <path d="M1112.48 -43.9753 L1107.48 -31.9753 L1112.48 -34.9753 L1117.48 -31.9753 Z" clip-path="url(#clipPath2)" stroke="none"/>
      <path fill="none" d="M1027.3098 15.911 L1085.5804 47.0527" clip-path="url(#clipPath2)"/>
      <path d="M1092.6361 50.8234 L1084.4094 40.7575 L1084.6985 46.5813 L1079.696 49.5771 Z" clip-path="url(#clipPath2)" stroke="none"/>
      <path fill="none" d="M1080.58 188.9573 L1223.8256 189.2674" clip-path="url(#clipPath2)"/>
      <path d="M1231.8256 189.2847 L1219.8364 184.2588 L1222.8256 189.2653 L1219.8148 194.2588 Z" clip-path="url(#clipPath2)" stroke="none"/>
      <text x="1133.7051" xml:space="preserve" y="181.5415" clip-path="url(#clipPath2)" font-family="sans-serif" stroke="none">a_3</text>
    </g>
  </g>
</svg>
